<svg width="120" height="24" viewBox="0 0 120 24" fill="none" xmlns="http://www.w3.org/2000/svg">
<path fill-rule="evenodd" clip-rule="evenodd" d="M6.63087 18.5325L10.5834 15.999C11.3345 15.615 12.0295 15.0935 12.6288 14.4365C15.3034 11.5045 15.0602 6.98467 12.0857 4.34108C9.11116 1.69749 4.53167 1.93125 1.8571 4.86319C-0.817465 7.79514 -0.574304 12.315 2.40022 14.9586C3.07591 15.5591 3.83441 16.0111 4.6346 16.3168C2.95031 17.662 2.53418 20.0734 3.74032 21.9067C4.90006 23.6694 7.16459 24.2971 9.05289 23.4791C9.1931 23.4393 9.32934 23.377 9.45638 23.2913L9.6074 23.1895C9.62807 23.1767 9.64868 23.1637 9.66921 23.1506L11.8382 21.6849L14.2938 20.0287C14.89 19.6629 15.6759 19.8338 16.06 20.4176C16.3015 20.7848 16.3273 21.2288 16.1687 21.6045C17.1779 20.8029 17.4609 19.4032 16.841 18.2806C16.1332 16.999 14.5069 16.5264 13.2085 17.225C13.1552 17.2537 13.1017 17.2834 13.048 17.3142C12.9817 17.3451 12.9169 17.3816 12.8544 17.4238L12.7449 17.4976C12.7106 17.5195 12.6761 17.5418 12.6416 17.5645L10.4725 19.0302L8.01697 20.6864C7.42077 21.0522 6.63489 20.8812 6.25081 20.2975C5.862 19.7065 6.03216 18.9163 6.63087 18.5325ZM9.88848 6.49839C11.596 8.02692 11.7356 10.6403 10.2003 12.3356C8.66493 14.0308 6.03607 14.166 4.32855 12.6374C2.62103 11.1089 2.48144 8.49553 4.01677 6.80028C5.55211 5.10502 8.18096 4.96987 9.88848 6.49839Z" fill="#EA5230"/>
<path d="M32.6392 6.11497H35.0908V17.5128C35.0908 19.4082 34.4949 20.9313 33.3032 22.0821C32.1115 23.2498 30.5367 23.8337 28.5788 23.8337C27.302 23.8337 26.1103 23.5037 25.0037 22.8436C23.9141 22.2006 23.1054 21.3459 22.5776 20.2798L24.927 18.9851C25.1994 19.6959 25.6676 20.2628 26.3316 20.6859C26.9955 21.1259 27.7276 21.3459 28.5278 21.3459C29.6344 21.3459 30.5282 20.9821 31.2091 20.2544C31.9072 19.5267 32.2562 18.5705 32.2562 17.3859V16.0405H32.1796C31.9072 16.7174 31.4049 17.2674 30.6729 17.6905C29.9578 18.0967 29.1492 18.2997 28.2469 18.2997C26.5444 18.2997 25.1739 17.7328 24.1354 16.5989C23.0969 15.4482 22.5776 13.9335 22.5776 12.055C22.5776 10.1766 23.0969 8.67038 24.1354 7.53652C25.1739 6.38574 26.5444 5.81035 28.2469 5.81035C29.2002 5.81035 30.0344 6.02189 30.7495 6.44497C31.4815 6.86805 31.9582 7.41806 32.1796 8.09499H32.2562L32.6392 6.11497ZM26.3827 14.822C27.0126 15.5159 27.8383 15.8628 28.8597 15.8628C29.8812 15.8628 30.6984 15.5159 31.3113 14.822C31.9412 14.1112 32.2562 13.1889 32.2562 12.055C32.2562 10.9043 31.9412 9.98194 31.3113 9.28808C30.6984 8.59423 29.8812 8.2473 28.8597 8.2473C27.8383 8.2473 27.0126 8.60269 26.3827 9.31347C25.7527 10.0073 25.4378 10.9212 25.4378 12.055C25.4378 13.1889 25.7527 14.1112 26.3827 14.822Z" fill="#0B0C0E"/>
<path d="M44.251 6.11497H45.8853V8.9327H43.9701C43.1018 8.9327 42.4038 9.27116 41.876 9.94809C41.3483 10.625 41.0844 11.522 41.0844 12.6389V18.579H38.2498V6.11497H40.6758L41.0844 8.39961H41.1099C41.2972 7.70576 41.6717 7.15575 42.2336 6.74959C42.8124 6.32651 43.4849 6.11497 44.251 6.11497Z" fill="#0B0C0E"/>
<path d="M48.0007 3.22108V0.022583H51.0396V3.22108H48.0007ZM48.1029 18.579V6.11497H50.9375V18.579H48.1029Z" fill="#0B0C0E"/>
<path d="M61.0543 5.81035C62.4503 5.81035 63.5655 6.25035 64.3997 7.13037C65.2509 8.01038 65.6765 9.16962 65.6765 10.6081V18.579H62.8419V11.5981C62.8419 10.6504 62.5865 9.88886 62.0758 9.31347C61.5651 8.73808 60.9011 8.45038 60.0839 8.45038C59.1646 8.45038 58.424 8.76346 57.8622 9.38962C57.3174 10.0158 57.045 10.8535 57.045 11.9027V18.579H54.2104V6.11497H56.6364L57.045 8.17115H57.0961C57.3515 7.46037 57.8367 6.89344 58.5517 6.47036C59.2838 6.03035 60.118 5.81035 61.0543 5.81035Z" fill="#0B0C0E"/>
<path d="M77.9185 0.022583H80.7787V18.579H78.3271L77.9185 16.5228H77.8675C77.6291 17.2166 77.1439 17.7836 76.4118 18.2236C75.6968 18.6467 74.8711 18.8582 73.9347 18.8582C72.2323 18.8582 70.8533 18.2659 69.7978 17.0813C68.7593 15.8797 68.24 14.2974 68.24 12.3343C68.24 10.3712 68.7593 8.79731 69.7978 7.61268C70.8533 6.41113 72.2323 5.81035 73.9347 5.81035C74.8711 5.81035 75.6968 6.03035 76.4118 6.47036C77.1439 6.89344 77.6291 7.45191 77.8675 8.14576H77.9185V0.022583ZM72.0705 15.2282C72.7005 15.9559 73.5262 16.3197 74.5476 16.3197C75.5691 16.3197 76.3863 15.9559 76.9992 15.2282C77.6121 14.5005 77.9185 13.5358 77.9185 12.3343C77.9185 11.1496 77.6121 10.2019 76.9992 9.49116C76.3863 8.76346 75.5691 8.39961 74.5476 8.39961C73.5262 8.39961 72.7005 8.76346 72.0705 9.49116C71.4406 10.2019 71.1257 11.1496 71.1257 12.3343C71.1257 13.5189 71.4406 14.4835 72.0705 15.2282Z" fill="#0B0C0E"/>
<path d="M95.7096 12.182V13.2735H86.2099C86.3631 14.272 86.7547 15.0505 87.3846 15.6089C88.0315 16.1674 88.8572 16.4466 89.8617 16.4466C90.6448 16.4466 91.3258 16.2689 91.9046 15.9136C92.5005 15.5412 92.9176 15.0335 93.1559 14.3905L95.3777 15.3551C94.952 16.4043 94.2285 17.2505 93.207 17.8936C92.2026 18.5367 91.0789 18.8582 89.8361 18.8582C87.9294 18.8582 86.3886 18.2659 85.2139 17.0813C84.0563 15.8797 83.4774 14.2974 83.4774 12.3343C83.4774 10.3712 84.0477 8.79731 85.1884 7.61268C86.3291 6.41113 87.8272 5.81035 89.6829 5.81035C91.4875 5.81035 92.9431 6.3942 94.0497 7.56191C95.1563 8.72962 95.7096 10.2696 95.7096 12.182ZM89.6063 8.2473C88.6529 8.2473 87.8783 8.54346 87.2824 9.13578C86.6866 9.71117 86.3205 10.515 86.1843 11.5473H93.0027C92.9346 10.515 92.6026 9.71117 92.0068 9.13578C91.4109 8.54346 90.6108 8.2473 89.6063 8.2473Z" fill="#0B0C0E"/>
<path d="M104.403 6.11497H106.037V8.9327H104.122C103.253 8.9327 102.555 9.27116 102.028 9.94809C101.5 10.625 101.236 11.522 101.236 12.6389V18.579H98.4014V6.11497H100.827L101.236 8.39961H101.262C101.449 7.70576 101.823 7.15575 102.385 6.74959C102.964 6.32651 103.636 6.11497 104.403 6.11497Z" fill="#0B0C0E"/>
<path d="M116.853 6.11497H119.994L115.423 18.6551L114.81 20.229C114.402 21.3798 113.831 22.2175 113.099 22.7421C112.384 23.2836 111.456 23.5544 110.316 23.5544H107.813V21.0159H110.112C110.622 21.0159 111.022 20.889 111.312 20.6352C111.618 20.3982 111.771 20.0682 111.771 19.6451C111.771 19.3067 111.695 18.9597 111.542 18.6044L107.073 6.11497H110.265L113.559 16.5989L116.853 6.11497Z" fill="#0B0C0E"/>
</svg>
