<svg width="68" height="20" viewBox="0 0 68 20" fill="none" xmlns="http://www.w3.org/2000/svg">
<g opacity="0.4" clip-path="url(#clip0_4625_23819)">
<path d="M18.4436 4.37085V15.2633H16.2229V4.37085H18.4436Z" fill="#0B0C0E"/>
<path d="M27.5078 7.91923V15.2875C27.5078 17.5746 25.7276 18.9806 23.5491 18.9806C21.449 18.9806 19.88 17.6772 19.7292 15.8366L21.9439 15.8487C22.0344 16.6332 22.7223 16.9711 23.6275 16.9711C24.4844 16.9711 25.281 16.5125 25.281 15.3176V14.3762C24.7137 14.7443 23.9896 14.9616 23.181 14.9616C21.1533 14.9616 19.53 13.3202 19.53 11.4314C19.53 9.23477 21.1594 7.76233 23.181 7.76233C23.9956 7.76233 24.7137 7.97957 25.281 8.34768V7.9494L27.5078 7.91923ZM25.287 12.2581V10.4658C24.8344 9.80806 24.2068 9.59081 23.5853 9.59081C22.493 9.59081 21.7327 10.321 21.7327 11.4314C21.7327 12.246 22.493 13.1391 23.5853 13.1391C24.2068 13.1331 24.8344 12.9098 25.287 12.2581Z" fill="#0B0C0E"/>
<path d="M36.3663 11.5036C36.3663 13.7726 34.6887 15.3898 32.4378 15.3898C30.1688 15.3898 28.4912 13.7726 28.4912 11.5036C28.4912 9.25267 30.1688 7.60522 32.4378 7.60522C34.6887 7.60522 36.3663 9.25267 36.3663 11.5036ZM34.2241 11.5036C34.2241 10.4354 33.5241 9.5725 32.4378 9.5725C31.3395 9.5725 30.6395 10.4354 30.6395 11.5036C30.6395 12.6019 31.3395 13.4226 32.4378 13.4226C33.518 13.4165 34.2241 12.6019 34.2241 11.5036Z" fill="#0B0C0E"/>
<path d="M50.1555 7.93123V15.2512L47.977 15.2633V14.8469C47.4098 15.215 46.6856 15.4443 45.877 15.4443C43.8494 15.4443 42.2261 13.7244 42.2261 11.6063C42.2261 9.47608 43.8554 7.75623 45.877 7.75623C46.6917 7.75623 47.4098 7.98554 47.977 8.35365V7.93726L50.1555 7.93123ZM47.977 12.7287V10.4839C47.5184 9.83212 46.8787 9.65109 46.2391 9.65109C45.1227 9.65109 44.3502 10.5442 44.3502 11.6123C44.3502 12.6684 45.1227 13.5615 46.2391 13.5615C46.8787 13.5555 47.5184 13.3805 47.977 12.7287Z" fill="#0B0C0E"/>
<path d="M59.111 11.2865V15.2633H56.9687V11.546C56.9687 10.3512 56.3713 9.71754 55.3092 9.71754C54.754 9.71754 54.1445 10.0374 53.6195 10.6529V15.2633H51.429V7.94337H53.6195V8.49855C54.2169 8.02182 54.9109 7.76233 55.7377 7.76233C57.6929 7.76233 59.111 9.13821 59.111 11.2865Z" fill="#0B0C0E"/>
<path d="M15.2089 15.2574H12.946L11.4735 9.784L8.30537 15.2574H5.77688L10.6649 6.78481L9.8804 3.83993L3.2846 15.2634H0.756104L9.11401 0.780396H11.3287L12.3003 4.37701H14.5874L13.0244 7.09257L15.2089 15.2574Z" fill="#0B0C0E"/>
<path d="M67.9578 4.37078V15.2632H65.737V14.8468C65.1698 15.2149 64.4456 15.4442 63.637 15.4442C61.6094 15.4442 59.9861 13.7244 59.9861 11.5942C59.9861 9.47604 61.6154 7.75618 63.637 7.75618C64.4517 7.75618 65.1698 7.9855 65.737 8.35361V4.36475L67.9578 4.37078ZM65.737 12.7347V10.4717C65.2724 9.81398 64.6267 9.63294 63.987 9.63294C62.8646 9.63294 62.0861 10.5321 62.0861 11.5942C62.0861 12.6744 62.8646 13.5735 63.987 13.5735C64.6267 13.5735 65.2724 13.3925 65.737 12.7347Z" fill="#0B0C0E"/>
<path d="M41.8276 9.7899C41.3448 9.85024 40.2103 9.90455 39.5465 10.8218V15.2693H37.356V7.95538H39.5465V8.50453C40.0474 8.07607 40.8017 7.82262 41.8276 7.92521" fill="#0B0C0E"/>
</g>
<defs>
<clipPath id="clip0_4625_23819">
<rect width="67.2856" height="18.2848" fill="white" transform="translate(0.714355 0.737915)"/>
</clipPath>
</defs>
</svg>
