<svg width="90" height="18" viewBox="0 0 90 18" fill="none" xmlns="http://www.w3.org/2000/svg">
<g opacity="0.4" clip-path="url(#clip0_4625_23801)">
<path d="M4.96591 8.88032L2.98822 10.8587L0.991455 8.88032L2.98749 6.88429L4.96591 8.88032ZM9.80073 4.0455L13.207 7.45175L15.2038 5.45645L9.80073 0.0710449L4.39771 5.47407L6.39448 7.46937L9.80073 4.0455ZM16.614 6.88429L14.6356 8.88032L16.6316 10.8764L18.6269 8.88032L16.614 6.88429ZM9.80073 13.7151L6.39448 10.2913L4.39771 12.2873L9.80073 17.6896L15.2038 12.2866L13.207 10.2913L9.80073 13.7151ZM9.80073 10.8595L11.7968 8.86271L9.80073 6.88502L7.8047 8.88032L9.80073 10.8587V10.8595ZM30.7918 11.065V11.0313C30.7918 9.7407 30.1032 9.08661 28.9851 8.65642C29.673 8.27836 30.2581 7.65804 30.2581 6.57449V6.54073C30.2581 5.02626 29.0365 4.0455 27.075 4.0455H22.5845V13.6983H27.1785C29.3632 13.7151 30.7918 12.8203 30.7918 11.0658V11.065ZM28.1417 6.93641C28.1417 7.65877 27.5566 7.95094 26.6103 7.95094H24.6495V5.90352H26.7483C27.6432 5.90352 28.1417 6.2647 28.1417 6.90191V6.93641ZM28.6754 10.7905C28.6754 11.5128 28.1079 11.8402 27.1778 11.8402H24.6495V9.72308H27.1095C28.1938 9.72308 28.6754 10.1195 28.6754 10.7729V10.7905ZM35.2478 13.7151V4.0455H33.1145V13.6983H35.2478V13.7151ZM46.6727 13.7151V4.0455H44.5732V9.9991L40.0481 4.0455H38.0866V13.6983H40.1861V7.57288L44.8661 13.7151H46.672H46.6727ZM58.4404 13.7151L54.2949 3.99411H52.3341L48.1872 13.7151H50.3726L51.2499 11.5473H55.3278L56.2051 13.7151H58.4419H58.4404ZM54.5695 9.67169H52.006L53.2966 6.54073L54.5695 9.67169ZM68.5755 13.7151V4.0455H66.476V9.9991L61.9509 4.0455H59.9894V13.6983H62.0889V7.57288L66.7689 13.7151H68.5748H68.5755ZM79.535 12.1493L78.1762 10.7905C77.4186 11.4783 76.7476 11.9254 75.6295 11.9254C73.9778 11.9254 72.8253 10.5489 72.8253 8.89721V8.84582C72.8253 7.19408 73.9947 5.83525 75.6295 5.83525C76.5927 5.83525 77.3503 6.24782 78.1072 6.91879L79.466 5.35294C78.5718 4.47568 77.4876 3.8561 75.664 3.8561C72.7049 3.8561 70.6229 6.10981 70.6229 8.84582V8.88032C70.6229 11.6501 72.7386 13.8524 75.5782 13.8524C77.4362 13.87 78.5373 13.216 79.535 12.1493ZM88.6027 13.7151V11.8226H83.3546V9.79208H87.9141V7.89956H83.3546V5.93802H88.5337V4.0455H81.2557V13.6983H88.6027V13.7151Z" fill="#0B0C0E"/>
</g>
<defs>
<clipPath id="clip0_4625_23801">
<rect width="88.0928" height="17.6186" fill="white" transform="translate(0.991455 0.0710449)"/>
</clipPath>
</defs>
</svg>
