<svg width="58" height="24" viewBox="0 0 58 24" fill="none" xmlns="http://www.w3.org/2000/svg">
<g opacity="0.4" clip-path="url(#clip0_4625_23810)">
<path fill-rule="evenodd" clip-rule="evenodd" d="M34.278 17.5672H36.4383V6.67439H34.278V17.5672ZM33.2217 11.8523H31.6918V17.5672H29.5474V11.8523H28.4436V10.0211H29.5474V9.31061C29.5474 7.46345 30.6985 6.51636 32.4489 6.51636C32.7012 6.51636 33.0954 6.56367 33.253 6.61094V8.75794C33.0954 8.67908 32.7643 8.61584 32.5279 8.61584C31.9915 8.61584 31.6918 8.96324 31.6918 9.45271V10.0211H33.2217V11.8523Z" fill="#0B0C0E"/>
<path fill-rule="evenodd" clip-rule="evenodd" d="M41.233 15.641C42.3364 15.641 43.1251 14.7253 43.1251 13.6361C43.1251 12.5467 42.3364 11.6468 41.233 11.6468C40.1451 11.6468 39.3251 12.5467 39.3251 13.6361C39.3251 14.7253 40.1451 15.641 41.233 15.641ZM41.233 9.54736C43.5353 9.54736 45.3169 11.3311 45.3169 13.6361C45.3169 15.9409 43.5353 17.7405 41.233 17.7405C38.9308 17.7405 37.1489 15.9409 37.1489 13.6361C37.1489 11.3311 38.9308 9.54736 41.233 9.54736Z" fill="#0B0C0E"/>
<path fill-rule="evenodd" clip-rule="evenodd" d="M47.5724 9.7052L48.9601 14.9307L50.3478 10.7787L49.9697 9.7052H52.0981L53.9273 14.9307L55.2833 9.7052H57.5068L55.1729 17.5669H52.9339L51.3728 13.2572L49.9222 17.5669H47.667L45.3489 9.7052H47.5724Z" fill="#0B0C0E"/>
<path fill-rule="evenodd" clip-rule="evenodd" d="M24.279 11.8803C24.279 18.4416 18.966 23.7606 12.4122 23.7606C5.85841 23.7606 0.54541 18.4416 0.54541 11.8803C0.54541 5.31905 5.85841 0 12.4122 0C18.966 0 24.279 5.31905 24.279 11.8803ZM14.2693 13.3759H17.6197V10.0214H14.2693V13.3759ZM10.9183 14.6336C10.9183 15.3283 10.3558 15.8915 9.66208 15.8915C8.96811 15.8915 8.4054 15.3283 8.4054 14.6336C8.4054 13.9388 8.96811 13.3757 9.66208 13.3757H10.9183V10.0211H9.66208C7.1214 10.0211 5.05469 12.0902 5.05469 14.6336C5.05469 17.1769 7.1214 19.246 9.66208 19.246C12.2021 19.246 14.2688 17.1769 14.2688 14.6336V13.3757H10.9183V14.6336ZM15.5251 8.34429H19.2947V4.98975H15.5251C12.9847 4.98975 10.918 7.05884 10.918 9.60219V10.0213H14.2687V9.60219C14.2694 8.90788 14.8314 8.345 15.5251 8.34429Z" fill="#0B0C0E"/>
<path fill-rule="evenodd" clip-rule="evenodd" d="M10.918 13.3757H14.2684H14.2687V10.0211H14.2684H10.918V13.3757Z" fill="#0B0C0E"/>
</g>
<defs>
<clipPath id="clip0_4625_23810">
<rect width="57.1089" height="23.7606" fill="white" transform="translate(0.54541)"/>
</clipPath>
</defs>
</svg>
