<svg width="84" height="22" viewBox="0 0 84 22" fill="none" xmlns="http://www.w3.org/2000/svg">
<g opacity="0.4" clip-path="url(#clip0_4625_23792)">
<path d="M16.6274 19.6779C15.0749 19.6779 13.8119 18.415 13.8119 16.8625V11.6791C16.3754 11.4809 18.23 10.9379 19.4428 10.0513V16.8625C19.4428 18.415 18.1799 19.6779 16.6274 19.6779ZM13.8119 4.89804C13.8119 3.34554 15.0749 2.08259 16.6274 2.08259C18.1799 2.08259 19.4428 3.34554 19.4428 4.89804V6.59885C19.4153 7.19697 19.2855 7.81152 18.7589 8.34061C18.1425 8.95903 16.7778 9.6568 13.8119 9.90747V4.89804ZM7.45948 16.8625C7.45948 18.415 6.19649 19.6779 4.64401 19.6779C3.09151 19.6779 1.82857 18.415 1.82857 16.8625V15.2841C1.8568 14.7092 1.99495 14.0821 2.56403 13.5092C3.20424 12.8637 4.56886 12.1386 7.45948 11.8673V16.8625ZM4.64401 2.08259C6.19649 2.08259 7.45948 3.34554 7.45948 4.89804V10.0971C4.91519 10.3154 3.05926 10.8949 1.82857 11.8378V4.89804C1.82857 3.34554 3.09151 2.08259 4.64401 2.08259ZM21.2066 5.90065L21.2023 5.60164V4.89804C21.2023 2.37557 19.1498 0.32312 16.6274 0.32312C14.1049 0.32312 12.0525 2.37557 12.0525 4.89804V9.99199C11.6076 10.001 9.68383 9.9985 9.21896 10.0092V4.89804C9.21896 2.37557 7.16646 0.32312 4.64401 0.32312C2.12155 0.32312 0.0689936 2.37557 0.0689936 4.89804V15.1967C0.0547265 15.4762 0.0606532 15.7258 0.0655764 15.9312L0.0689936 16.1589V16.8625C0.0689936 19.385 2.12155 21.4375 4.64401 21.4375C7.16646 21.4375 9.21896 19.385 9.21896 16.8625V11.7721C9.66852 11.761 11.5931 11.7644 12.0525 11.7563V16.8625C12.0525 19.385 14.1049 21.4375 16.6274 21.4375C19.1498 21.4375 21.2023 19.385 21.2023 16.8625V6.6941C21.217 6.3999 21.2116 6.13053 21.2066 5.90065Z" fill="#0B0C0E"/>
<path d="M29.4854 15.7341V6.03871C29.4854 5.98325 29.5304 5.93823 29.5858 5.93823H31.065C31.1204 5.93823 31.1655 5.98325 31.1655 6.03871V10.1032H36.2384V6.03871C36.2384 5.98325 36.2834 5.93823 36.3389 5.93823H37.818C37.8736 5.93823 37.9185 5.98325 37.9185 6.03871V15.7341C37.9185 15.7896 37.8736 15.8346 37.818 15.8346H36.3389C36.2834 15.8346 36.2384 15.7896 36.2384 15.7341V11.6651H31.1655V15.7341C31.1655 15.7896 31.1204 15.8346 31.065 15.8346H29.5858C29.5304 15.8346 29.4854 15.7896 29.4854 15.7341Z" fill="#0B0C0E"/>
<path d="M42.2459 10.6104C41.1303 10.6104 40.4346 11.4375 40.4346 12.5926C40.4346 13.7474 41.1171 14.5615 42.2328 14.5615C43.3484 14.5615 44.0704 13.7607 44.0704 12.5926C44.0704 11.4241 43.3616 10.6104 42.2459 10.6104ZM45.6981 9.4508V15.7341C45.6981 15.7895 45.6531 15.8346 45.5976 15.8346H44.2923C44.2407 15.8346 44.1976 15.7957 44.1923 15.7444L44.0965 14.824C43.6897 15.4932 42.9153 16.0051 41.8652 16.0051C39.9358 16.0051 38.8333 14.5352 38.8333 12.5136C38.8333 10.4792 40.0538 9.15344 41.8784 9.15344C42.8497 9.15344 43.7553 9.5735 44.1492 10.3479L44.2326 9.4416C44.2373 9.38986 44.2807 9.35033 44.3327 9.35033H45.5976C45.6531 9.35033 45.6981 9.39526 45.6981 9.4508Z" fill="#0B0C0E"/>
<path d="M50.8588 10.7068C50.8588 10.7623 50.8138 10.8073 50.7584 10.8073H50.2682C49.1131 10.8073 48.3911 11.4242 48.3911 12.6846V15.7341C48.3911 15.7896 48.3461 15.8346 48.2907 15.8346H46.8903C46.8348 15.8346 46.7898 15.7896 46.7898 15.7341V9.46416C46.7898 9.40868 46.8348 9.36369 46.8903 9.36369H48.2082C48.2599 9.36369 48.3032 9.40299 48.3082 9.45454L48.3911 10.3086C48.6667 9.66551 49.2838 9.26088 50.15 9.26088C50.3505 9.26088 50.5511 9.25888 50.7801 9.30633C50.826 9.31583 50.8588 9.35788 50.8588 9.40486V10.7068Z" fill="#0B0C0E"/>
<path d="M51.6897 15.7341V9.4508C51.6897 9.39526 51.7347 9.35033 51.7902 9.35033H53.0751C53.124 9.35033 53.1658 9.38552 53.1742 9.43374L53.291 10.1117C53.6193 9.5735 54.2754 9.15344 55.2074 9.15344C56.1918 9.15344 56.8743 9.63907 57.2156 10.3872C57.5439 9.63907 58.3052 9.15344 59.2894 9.15344C60.8647 9.15344 61.731 10.0985 61.731 11.595V15.7341C61.731 15.7895 61.6858 15.8346 61.6301 15.8346H60.243C60.1873 15.8346 60.1427 15.7895 60.1427 15.7341V12.0151C60.1427 11.0831 59.6442 10.5974 58.8823 10.5974C58.1082 10.5974 57.5176 11.0961 57.5176 12.1593V15.7341C57.5176 15.7895 57.4726 15.8346 57.4171 15.8346H56.0167C55.9613 15.8346 55.9163 15.7895 55.9163 15.7341V12.0017C55.9163 11.0961 55.4306 10.6104 54.6693 10.6104C53.908 10.6104 53.291 11.1094 53.291 12.1593V15.7341C53.291 15.7895 53.246 15.8346 53.1905 15.8346H51.7902C51.7347 15.8346 51.6897 15.7895 51.6897 15.7341Z" fill="#0B0C0E"/>
<path d="M65.9851 14.5615C67.0872 14.5615 67.8491 13.7608 67.8491 12.5793C67.8491 11.3982 67.0872 10.5975 65.9851 10.5975C64.8825 10.5975 64.1212 11.3982 64.1212 12.5793C64.1212 13.7608 64.8825 14.5615 65.9851 14.5615ZM65.9851 9.16687C67.9933 9.16687 69.4502 10.5581 69.4502 12.5793C69.4502 14.6008 67.9933 15.9922 65.9851 15.9922C63.9769 15.9922 62.52 14.6008 62.52 12.5793C62.52 10.5581 63.9769 9.16687 65.9851 9.16687Z" fill="#0B0C0E"/>
<path d="M70.2861 15.7341V9.4508C70.2861 9.39526 70.3313 9.35033 70.387 9.35033H71.6838C71.7331 9.35033 71.7753 9.3864 71.7829 9.43526L71.9008 10.1904C72.3078 9.53421 73.0955 9.15344 73.9747 9.15344C75.6023 9.15344 76.4421 10.1644 76.4421 11.8445V15.7341C76.4421 15.7895 76.397 15.8346 76.3419 15.8346H74.9413C74.8861 15.8346 74.841 15.7895 74.841 15.7341V12.2249C74.841 11.1356 74.3031 10.6104 73.4762 10.6104C72.4914 10.6104 71.8879 11.2929 71.8879 12.3431V15.7341C71.8879 15.7895 71.8427 15.8346 71.787 15.8346H70.387C70.3313 15.8346 70.2861 15.7895 70.2861 15.7341Z" fill="#0B0C0E"/>
<path d="M83.7071 9.35034H82.2203C82.1786 9.35034 82.1417 9.37597 82.1264 9.41474L80.2297 14.3349L78.4027 9.41726C78.3886 9.37715 78.3511 9.35034 78.3083 9.35034H76.7822C76.7118 9.35034 76.6631 9.42125 76.6889 9.48706L79.0203 15.5104C79.0959 15.7058 79.2836 15.8345 79.4936 15.8345H79.6514L78.4983 18.8041C78.4731 18.8699 78.5212 18.9406 78.5921 18.9406H80.0572C80.0989 18.9406 80.1364 18.9145 80.1511 18.8751L83.8003 9.48817C83.8267 9.42219 83.7781 9.35034 83.7071 9.35034Z" fill="#0B0C0E"/>
</g>
<defs>
<clipPath id="clip0_4625_23792">
<rect width="83.8711" height="21.1144" fill="white" transform="translate(0.0600586 0.32312)"/>
</clipPath>
</defs>
</svg>
