<svg width="64" height="18" viewBox="0 0 64 18" fill="none" xmlns="http://www.w3.org/2000/svg">
<g opacity="0.4" clip-path="url(#clip0_4625_23803)">
<path d="M31.8519 4.02781V13.7511C31.8519 13.8252 31.7964 13.8993 31.7038 13.8993H30.6851C30.2222 13.8993 29.7777 13.6585 29.5183 13.2697L24.9252 6.17621L25.0734 9.71366V13.7697C25.0734 13.8438 25.0178 13.9178 24.9252 13.9178H23.5917C23.5176 13.9178 23.4436 13.8623 23.4436 13.7697V4.02781C23.4436 3.95372 23.4991 3.87964 23.5917 3.87964H24.5918C25.0549 3.87964 25.4993 4.12041 25.7586 4.50935L30.3518 11.5842L30.2037 8.0468V4.02781C30.2037 3.95372 30.2592 3.87964 30.3518 3.87964H31.6852C31.7964 3.87964 31.8519 3.9352 31.8519 4.02781Z" fill="#0B0C0E"/>
<path d="M45.5196 13.8808H44.112C44.0194 13.8808 43.9453 13.7882 43.9824 13.6956L47.7236 4.00929C47.7606 3.9352 47.8347 3.87964 47.9088 3.87964H49.6868C49.7794 3.87964 49.8534 3.9352 49.872 4.00929L53.6317 13.6956C53.6687 13.7882 53.5946 13.8808 53.502 13.8808H52.0945C52.039 13.8808 51.9834 13.8438 51.9649 13.7882L48.9459 5.82431C48.9089 5.71319 48.7237 5.71319 48.6866 5.82431L45.6678 13.7882C45.6308 13.8438 45.5752 13.8808 45.5196 13.8808Z" fill="#0B0C0E"/>
<path d="M63.4483 13.6585L60.6331 10.0655C62.2259 9.76925 63.1519 8.69503 63.1519 7.04668C63.1519 5.15757 61.9295 3.87964 59.7441 3.87964H55.8177C55.7066 3.87964 55.614 3.97224 55.614 4.08336C55.614 4.82419 56.2067 5.41685 56.9475 5.41685H59.5959C60.9109 5.41685 61.5406 6.0836 61.5406 7.0652C61.5406 8.0468 60.9294 8.71354 59.5959 8.71354H55.8547C55.7436 8.71354 55.651 8.80615 55.651 8.91723V13.7326C55.651 13.8067 55.7066 13.8808 55.7992 13.8808H57.1327C57.2068 13.8808 57.2809 13.8252 57.2809 13.7326V10.1581H58.8181L61.2628 13.3438C61.522 13.6956 61.9295 13.8808 62.3741 13.8808H63.3927C63.4668 13.8808 63.5223 13.7511 63.4483 13.6585Z" fill="#0B0C0E"/>
<path d="M41.2969 3.87964H35.0925C34.9813 3.87964 34.9072 3.95372 34.9072 4.06484C34.9072 4.80567 35.5185 5.41685 36.2593 5.41685H41.2969C41.371 5.41685 41.4451 5.3613 41.4451 5.26869V4.00929C41.4266 3.9352 41.371 3.87964 41.2969 3.87964ZM41.2969 12.3436H36.6668C36.5927 12.3436 36.5186 12.288 36.5186 12.1955V9.69516C36.5186 9.62107 36.5741 9.54698 36.6668 9.54698H40.945C41.0191 9.54698 41.0932 9.49139 41.0932 9.39879V8.1394C41.0932 8.06532 41.0376 7.99123 40.945 7.99123H35.111C34.9999 7.99123 34.9072 8.08384 34.9072 8.19497V13.6585C34.9072 13.7697 34.9999 13.8623 35.111 13.8623H41.2969C41.371 13.8623 41.4451 13.8067 41.4451 13.7141V12.4547C41.4266 12.3991 41.371 12.3436 41.2969 12.3436Z" fill="#0B0C0E"/>
<path d="M13.5162 1.39809L10.0344 6.56537C9.7936 6.91726 10.2566 7.34325 10.5899 7.04691L14.0163 4.06508C14.1089 3.99099 14.2385 4.04656 14.2385 4.17621V13.4921C14.2385 13.6218 14.0719 13.6774 13.9978 13.5847L3.62618 1.17585C3.29281 0.768391 2.81127 0.546143 2.27417 0.546143H1.90375C0.940678 0.546143 0.144287 1.34253 0.144287 2.32413V15.4368C0.144287 16.4184 0.940678 17.2148 1.92227 17.2148C2.53346 17.2148 3.1076 16.8999 3.44098 16.3628L6.92286 11.1956C7.16363 10.8437 6.70062 10.4176 6.36725 10.714L2.94092 13.6774C2.84831 13.7514 2.71867 13.6959 2.71867 13.5662V4.26881C2.71867 4.13916 2.88535 4.08359 2.95944 4.17621L13.331 16.585C13.6644 16.9925 14.1644 17.2148 14.683 17.2148H15.0535C16.0351 17.2148 16.8314 16.4184 16.8314 15.4368V2.32413C16.8129 1.34253 16.0165 0.546143 15.035 0.546143C14.4237 0.546143 13.8496 0.860995 13.5162 1.39809Z" fill="#0B0C0E"/>
</g>
<defs>
<clipPath id="clip0_4625_23803">
<rect width="63.3408" height="16.6686" fill="white" transform="translate(0.144287 0.546021)"/>
</clipPath>
</defs>
</svg>
