<svg width="500" height="331" viewBox="0 0 500 331" fill="none" xmlns="http://www.w3.org/2000/svg">
<circle opacity="0.85" cx="250" cy="165.802" r="59.9311" stroke="#EA5230" stroke-width="1.51908"/>
<circle opacity="0.7" cx="250" cy="165.802" r="87.4608" stroke="#EA5230" stroke-width="1.51908"/>
<circle opacity="0.55" cx="250" cy="165.802" r="113.739" stroke="#EA5230" stroke-width="1.51908"/>
<circle opacity="0.4" cx="250" cy="165.802" r="138.141" stroke="#EA5230" stroke-width="1.51908"/>
<circle opacity="0.25" cx="250" cy="165.802" r="162.542" stroke="#EA5230" stroke-width="1.51908"/>
<rect x="51.3798" y="50.731" width="397.24" height="90.3855" rx="6.45611" fill="white"/>
<g filter="url(#filter0_d_4625_22544)">
<rect x="66.1908" y="65.542" width="60.7634" height="60.7634" rx="9.1145" fill="white"/>
<g clip-path="url(#clip0_4625_22544)">
<path fill-rule="evenodd" clip-rule="evenodd" d="M106.873 97.054C102.494 97.054 98.9437 100.604 98.9437 104.983C98.9437 109.362 102.494 112.912 106.873 112.912C111.252 112.912 114.802 109.362 114.802 104.983C114.802 100.604 111.252 97.054 106.873 97.054ZM86.2725 97.0546C81.8935 97.0546 78.3435 100.604 78.3435 104.983C78.3435 109.362 81.8935 112.912 86.2725 112.912C90.6517 112.912 94.2018 109.362 94.2018 104.983C94.2018 100.604 90.6517 97.0546 86.2725 97.0546ZM104.501 87.1425C104.501 91.5219 100.952 95.0722 96.5726 95.0722C92.1934 95.0722 88.6436 91.5219 88.6436 87.1425C88.6436 82.764 92.1934 79.2137 96.5726 79.2137C100.952 79.2137 104.501 82.764 104.501 87.1425Z" fill="#F06A6A"/>
</g>
<rect x="66.5706" y="65.9218" width="60.0038" height="60.0038" rx="8.73473" stroke="#E8E7E4" stroke-width="0.759542"/>
</g>
<g clip-path="url(#clip1_4625_22544)">
<path fill-rule="evenodd" clip-rule="evenodd" d="M148.599 82.3398V74.2767H145.183V92.5057H148.599V84.7812H151.083V82.3398H148.599ZM158.229 82.3398H161.134V84.7812H158.229V82.3398ZM156.28 84.7812H153.032V82.3398H156.28V84.7812Z" fill="#2D2E2E"/>
</g>
<path d="M170.835 79.7676V78.8182H177.464V79.7676H174.684V87.6565H173.614V79.7676H170.835ZM178.289 87.6565V81.0278H179.273V82.029H179.342C179.463 81.701 179.681 81.4349 179.998 81.2306C180.314 81.0263 180.671 80.9242 181.068 80.9242C181.143 80.9242 181.236 80.9256 181.349 80.9285C181.461 80.9314 181.546 80.9357 181.603 80.9415V81.9772C181.569 81.9686 181.49 81.9556 181.366 81.9384C181.245 81.9182 181.117 81.9081 180.982 81.9081C180.66 81.9081 180.372 81.9758 180.119 82.111C179.868 82.2433 179.67 82.4275 179.523 82.6634C179.379 82.8964 179.307 83.1625 179.307 83.4618V87.6565H178.289ZM182.811 87.6565V81.0278H183.829V87.6565H182.811ZM183.328 79.923C183.13 79.923 182.959 79.8554 182.815 79.7201C182.674 79.5849 182.603 79.4224 182.603 79.2325C182.603 79.0426 182.674 78.88 182.815 78.7448C182.959 78.6096 183.13 78.542 183.328 78.542C183.527 78.542 183.697 78.6096 183.838 78.7448C183.982 78.88 184.053 79.0426 184.053 79.2325C184.053 79.4224 183.982 79.5849 183.838 79.7201C183.697 79.8554 183.527 79.923 183.328 79.923ZM188.37 90.2804C187.878 90.2804 187.455 90.2171 187.101 90.0905C186.747 89.9668 186.453 89.8028 186.217 89.5985C185.984 89.3971 185.798 89.1813 185.66 88.9512L186.471 88.3815C186.563 88.5023 186.68 88.6404 186.821 88.7958C186.962 88.954 187.155 89.0907 187.399 89.2058C187.647 89.3237 187.97 89.3827 188.37 89.3827C188.905 89.3827 189.347 89.2533 189.695 88.9943C190.043 88.7354 190.217 88.3297 190.217 87.7773V86.4309H190.131C190.056 86.5517 189.95 86.7013 189.812 86.8797C189.676 87.0552 189.481 87.212 189.225 87.3501C188.971 87.4853 188.629 87.5529 188.197 87.5529C187.662 87.5529 187.182 87.4263 186.756 87.1731C186.333 86.92 185.998 86.5517 185.751 86.0684C185.506 85.585 185.384 84.9981 185.384 84.3076C185.384 83.6286 185.503 83.0374 185.742 82.5339C185.981 82.0275 186.313 81.6363 186.739 81.3601C187.165 81.081 187.657 80.9415 188.215 80.9415C188.646 80.9415 188.989 81.0134 189.242 81.1572C189.498 81.2982 189.694 81.4593 189.829 81.6406C189.967 81.819 190.073 81.9657 190.148 82.0808H190.252V81.0278H191.236V87.8464C191.236 88.416 191.106 88.8792 190.847 89.236C190.591 89.5956 190.246 89.8589 189.812 90.0257C189.38 90.1955 188.899 90.2804 188.37 90.2804ZM188.336 86.638C188.744 86.638 189.089 86.5445 189.371 86.3575C189.653 86.1705 189.868 85.9015 190.014 85.5505C190.161 85.1995 190.234 84.7794 190.234 84.2903C190.234 83.8128 190.163 83.3913 190.019 83.0259C189.875 82.6605 189.662 82.3742 189.38 82.1671C189.098 81.9599 188.75 81.8564 188.336 81.8564C187.904 81.8564 187.544 81.9657 187.257 82.1843C186.972 82.403 186.758 82.6965 186.614 83.0647C186.473 83.433 186.402 83.8415 186.402 84.2903C186.402 84.7507 186.474 85.1578 186.618 85.5117C186.765 85.8627 186.981 86.1388 187.265 86.3402C187.553 86.5388 187.91 86.638 188.336 86.638ZM195.776 90.2804C195.284 90.2804 194.861 90.2171 194.507 90.0905C194.153 89.9668 193.858 89.8028 193.622 89.5985C193.389 89.3971 193.204 89.1813 193.065 88.9512L193.877 88.3815C193.969 88.5023 194.085 88.6404 194.226 88.7958C194.367 88.954 194.56 89.0907 194.805 89.2058C195.052 89.3237 195.376 89.3827 195.776 89.3827C196.311 89.3827 196.752 89.2533 197.101 88.9943C197.449 88.7354 197.623 88.3297 197.623 87.7773V86.4309H197.536C197.462 86.5517 197.355 86.7013 197.217 86.8797C197.082 87.0552 196.886 87.212 196.63 87.3501C196.377 87.4853 196.035 87.5529 195.603 87.5529C195.068 87.5529 194.587 87.4263 194.162 87.1731C193.739 86.92 193.404 86.5517 193.156 86.0684C192.912 85.585 192.789 84.9981 192.789 84.3076C192.789 83.6286 192.909 83.0374 193.147 82.5339C193.386 82.0275 193.719 81.6363 194.144 81.3601C194.57 81.081 195.062 80.9415 195.62 80.9415C196.052 80.9415 196.394 81.0134 196.647 81.1572C196.903 81.2982 197.099 81.4593 197.234 81.6406C197.372 81.819 197.479 81.9657 197.554 82.0808H197.657V81.0278H198.641V87.8464C198.641 88.416 198.512 88.8792 198.253 89.236C197.997 89.5956 197.651 89.8589 197.217 90.0257C196.786 90.1955 196.305 90.2804 195.776 90.2804ZM195.741 86.638C196.15 86.638 196.495 86.5445 196.777 86.3575C197.059 86.1705 197.273 85.9015 197.42 85.5505C197.567 85.1995 197.64 84.7794 197.64 84.2903C197.64 83.8128 197.568 83.3913 197.424 83.0259C197.28 82.6605 197.067 82.3742 196.786 82.1671C196.504 81.9599 196.155 81.8564 195.741 81.8564C195.31 81.8564 194.95 81.9657 194.662 82.1843C194.377 82.403 194.163 82.6965 194.019 83.0647C193.878 83.433 193.808 83.8415 193.808 84.2903C193.808 84.7507 193.88 85.1578 194.024 85.5117C194.17 85.8627 194.386 86.1388 194.671 86.3402C194.959 86.5388 195.315 86.638 195.741 86.638ZM203.285 87.7946C202.646 87.7946 202.095 87.6536 201.632 87.3717C201.172 87.0868 200.816 86.6898 200.566 86.1806C200.319 85.6685 200.195 85.0729 200.195 84.3939C200.195 83.7149 200.319 83.1165 200.566 82.5986C200.816 82.0779 201.164 81.6722 201.61 81.3816C202.059 81.0882 202.583 80.9415 203.181 80.9415C203.526 80.9415 203.867 80.999 204.204 81.1141C204.541 81.2292 204.847 81.4162 205.123 81.6751C205.399 81.9312 205.619 82.2707 205.783 82.6936C205.947 83.1165 206.029 83.6373 206.029 84.2558V84.6874H200.92V83.807H204.994C204.994 83.433 204.919 83.0992 204.769 82.8058C204.623 82.5123 204.413 82.2807 204.139 82.111C203.869 81.9412 203.549 81.8564 203.181 81.8564C202.776 81.8564 202.425 81.9571 202.128 82.1584C201.835 82.357 201.609 82.6159 201.451 82.9352C201.292 83.2546 201.213 83.597 201.213 83.9624V84.5493C201.213 85.0499 201.3 85.4742 201.472 85.8224C201.648 86.1676 201.891 86.4309 202.202 86.6121C202.512 86.7905 202.873 86.8797 203.285 86.8797C203.552 86.8797 203.794 86.8423 204.01 86.7675C204.228 86.6898 204.417 86.5747 204.575 86.4222C204.733 86.2669 204.856 86.0741 204.942 85.844L205.926 86.1201C205.822 86.4539 205.648 86.7473 205.404 87.0005C205.159 87.2508 204.857 87.4465 204.497 87.5874C204.138 87.7255 203.734 87.7946 203.285 87.7946ZM207.579 87.6565V81.0278H208.563V82.029H208.632C208.753 81.701 208.971 81.4349 209.288 81.2306C209.604 81.0263 209.961 80.9242 210.358 80.9242C210.433 80.9242 210.526 80.9256 210.639 80.9285C210.751 80.9314 210.836 80.9357 210.893 80.9415V81.9772C210.859 81.9686 210.779 81.9556 210.656 81.9384C210.535 81.9182 210.407 81.9081 210.272 81.9081C209.949 81.9081 209.662 81.9758 209.409 82.111C209.158 82.2433 208.96 82.4275 208.813 82.6634C208.669 82.8964 208.597 83.1625 208.597 83.4618V87.6565H207.579Z" fill="black"/>
<path d="M152.967 101.876H155.303V109.05C155.303 109.856 155.111 110.561 154.726 111.165C154.345 111.769 153.811 112.24 153.124 112.578C152.437 112.913 151.637 113.08 150.723 113.08C149.806 113.08 149.004 112.913 148.317 112.578C147.63 112.24 147.096 111.769 146.715 111.165C146.334 110.561 146.143 109.856 146.143 109.05V101.876H148.479V108.851C148.479 109.272 148.571 109.646 148.754 109.973C148.941 110.3 149.204 110.557 149.542 110.744C149.88 110.931 150.274 111.025 150.723 111.025C151.176 111.025 151.57 110.931 151.905 110.744C152.243 110.557 152.503 110.3 152.687 109.973C152.874 109.646 152.967 109.272 152.967 108.851V101.876ZM159.48 108.133V112.924H157.182V104.638H159.372V106.1H159.469C159.652 105.618 159.96 105.237 160.391 104.956C160.823 104.672 161.346 104.53 161.961 104.53C162.537 104.53 163.038 104.656 163.466 104.908C163.894 105.159 164.227 105.519 164.464 105.986C164.702 106.45 164.82 107.004 164.82 107.648V112.924H162.522V108.058C162.526 107.551 162.396 107.155 162.134 106.871C161.871 106.583 161.51 106.44 161.05 106.44C160.74 106.44 160.467 106.506 160.23 106.639C159.996 106.772 159.812 106.966 159.679 107.222C159.55 107.473 159.483 107.777 159.48 108.133ZM168.93 101.876V112.924H166.632V101.876H168.93ZM174.514 113.086C173.676 113.086 172.952 112.908 172.34 112.551C171.732 112.192 171.263 111.692 170.932 111.052C170.601 110.408 170.436 109.662 170.436 108.813C170.436 107.957 170.601 107.209 170.932 106.569C171.263 105.925 171.732 105.425 172.34 105.069C172.952 104.71 173.676 104.53 174.514 104.53C175.352 104.53 176.075 104.71 176.683 105.069C177.294 105.425 177.765 105.925 178.096 106.569C178.427 107.209 178.592 107.957 178.592 108.813C178.592 109.662 178.427 110.408 178.096 111.052C177.765 111.692 177.294 112.192 176.683 112.551C176.075 112.908 175.352 113.086 174.514 113.086ZM174.525 111.305C174.906 111.305 175.224 111.197 175.48 110.982C175.735 110.762 175.928 110.464 176.057 110.086C176.19 109.709 176.257 109.279 176.257 108.797C176.257 108.315 176.19 107.885 176.057 107.508C175.928 107.13 175.735 106.832 175.48 106.612C175.224 106.393 174.906 106.283 174.525 106.283C174.14 106.283 173.817 106.393 173.554 106.612C173.295 106.832 173.099 107.13 172.966 107.508C172.837 107.885 172.772 108.315 172.772 108.797C172.772 109.279 172.837 109.709 172.966 110.086C173.099 110.464 173.295 110.762 173.554 110.982C173.817 111.197 174.14 111.305 174.525 111.305ZM183.83 113.086C182.982 113.086 182.252 112.906 181.64 112.546C181.033 112.183 180.565 111.679 180.238 111.036C179.914 110.392 179.752 109.651 179.752 108.813C179.752 107.964 179.916 107.22 180.243 106.58C180.574 105.936 181.043 105.434 181.651 105.075C182.259 104.712 182.982 104.53 183.82 104.53C184.543 104.53 185.175 104.661 185.719 104.924C186.262 105.186 186.691 105.555 187.008 106.03C187.324 106.504 187.499 107.062 187.531 107.702H185.363C185.301 107.288 185.14 106.956 184.877 106.704C184.618 106.449 184.278 106.321 183.857 106.321C183.501 106.321 183.19 106.418 182.924 106.612C182.662 106.803 182.457 107.081 182.309 107.448C182.162 107.815 182.088 108.259 182.088 108.781C182.088 109.309 182.16 109.759 182.304 110.129C182.451 110.5 182.658 110.782 182.924 110.976C183.19 111.171 183.501 111.268 183.857 111.268C184.12 111.268 184.356 111.214 184.564 111.106C184.776 110.998 184.951 110.841 185.087 110.636C185.228 110.428 185.319 110.178 185.363 109.887H187.531C187.495 110.52 187.322 111.077 187.013 111.559C186.708 112.037 186.285 112.411 185.746 112.681C185.206 112.951 184.568 113.086 183.83 113.086ZM191.085 110.539L191.09 107.783H191.425L194.079 104.638H196.717L193.151 108.802H192.606L191.085 110.539ZM189.002 112.924V101.876H191.3V112.924H189.002ZM194.181 112.924L191.743 109.315L193.275 107.691L196.873 112.924H194.181ZM205.767 104.638V106.364H200.777V104.638H205.767ZM201.91 102.653H204.208V110.378C204.208 110.59 204.24 110.755 204.305 110.874C204.37 110.989 204.46 111.07 204.575 111.117C204.694 111.163 204.83 111.187 204.985 111.187C205.093 111.187 205.201 111.178 205.309 111.16C205.416 111.138 205.499 111.122 205.557 111.111L205.918 112.821C205.803 112.857 205.641 112.899 205.433 112.945C205.224 112.996 204.971 113.026 204.672 113.037C204.118 113.059 203.633 112.985 203.216 112.816C202.802 112.647 202.48 112.384 202.25 112.028C202.02 111.672 201.906 111.223 201.91 110.68V102.653ZM209.74 108.133V112.924H207.442V101.876H209.675V106.1H209.772C209.96 105.611 210.262 105.228 210.679 104.951C211.096 104.67 211.619 104.53 212.249 104.53C212.824 104.53 213.326 104.656 213.754 104.908C214.185 105.156 214.52 105.513 214.757 105.981C214.998 106.445 215.117 107.001 215.113 107.648V112.924H212.815V108.058C212.819 107.547 212.689 107.15 212.427 106.866C212.168 106.582 211.804 106.44 211.337 106.44C211.024 106.44 210.747 106.506 210.506 106.639C210.269 106.772 210.082 106.966 209.945 107.222C209.812 107.473 209.744 107.777 209.74 108.133ZM220.698 113.086C219.845 113.086 219.112 112.913 218.497 112.568C217.885 112.219 217.414 111.726 217.083 111.09C216.752 110.449 216.587 109.692 216.587 108.819C216.587 107.966 216.752 107.218 217.083 106.574C217.414 105.931 217.88 105.429 218.481 105.069C219.085 104.71 219.793 104.53 220.606 104.53C221.153 104.53 221.661 104.618 222.133 104.794C222.607 104.967 223.021 105.228 223.373 105.576C223.729 105.925 224.006 106.364 224.204 106.893C224.402 107.418 224.501 108.033 224.501 108.738V109.369H217.504V107.945H222.338C222.338 107.614 222.266 107.321 222.122 107.065C221.978 106.81 221.778 106.61 221.523 106.467C221.271 106.319 220.978 106.245 220.644 106.245C220.295 106.245 219.986 106.326 219.716 106.488C219.45 106.646 219.241 106.86 219.09 107.13C218.939 107.396 218.862 107.693 218.858 108.02V109.374C218.858 109.784 218.934 110.138 219.085 110.437C219.239 110.735 219.457 110.966 219.737 111.127C220.018 111.289 220.351 111.37 220.735 111.37C220.991 111.37 221.225 111.334 221.437 111.262C221.649 111.19 221.83 111.082 221.982 110.939C222.133 110.795 222.248 110.618 222.327 110.41L224.452 110.55C224.344 111.061 224.123 111.507 223.789 111.888C223.458 112.266 223.03 112.56 222.505 112.773C221.983 112.981 221.381 113.086 220.698 113.086ZM229.516 116.031V104.638H231.782V106.03H231.884C231.985 105.807 232.131 105.58 232.321 105.35C232.516 105.116 232.767 104.922 233.077 104.767C233.39 104.609 233.778 104.53 234.242 104.53C234.846 104.53 235.403 104.688 235.914 105.005C236.425 105.317 236.833 105.79 237.139 106.423C237.444 107.053 237.597 107.842 237.597 108.792C237.597 109.716 237.448 110.496 237.149 111.133C236.855 111.766 236.452 112.246 235.941 112.573C235.434 112.897 234.866 113.059 234.236 113.059C233.79 113.059 233.411 112.985 233.098 112.837C232.789 112.69 232.535 112.505 232.338 112.282C232.14 112.055 231.989 111.827 231.884 111.597H231.814V116.031H229.516ZM231.766 108.781C231.766 109.273 231.834 109.703 231.971 110.07C232.107 110.437 232.305 110.723 232.564 110.928C232.823 111.129 233.138 111.23 233.508 111.23C233.882 111.23 234.199 111.127 234.458 110.922C234.717 110.714 234.913 110.426 235.046 110.059C235.182 109.689 235.251 109.263 235.251 108.781C235.251 108.302 235.184 107.882 235.051 107.518C234.918 107.155 234.722 106.871 234.463 106.666C234.204 106.461 233.886 106.359 233.508 106.359C233.134 106.359 232.818 106.458 232.559 106.655C232.303 106.853 232.107 107.134 231.971 107.497C231.834 107.86 231.766 108.288 231.766 108.781ZM242.873 113.086C242.035 113.086 241.31 112.908 240.699 112.551C240.091 112.192 239.622 111.692 239.291 111.052C238.96 110.408 238.795 109.662 238.795 108.813C238.795 107.957 238.96 107.209 239.291 106.569C239.622 105.925 240.091 105.425 240.699 105.069C241.31 104.71 242.035 104.53 242.873 104.53C243.711 104.53 244.434 104.71 245.042 105.069C245.653 105.425 246.124 105.925 246.455 106.569C246.786 107.209 246.951 107.957 246.951 108.813C246.951 109.662 246.786 110.408 246.455 111.052C246.124 111.692 245.653 112.192 245.042 112.551C244.434 112.908 243.711 113.086 242.873 113.086ZM242.884 111.305C243.265 111.305 243.583 111.197 243.839 110.982C244.094 110.762 244.286 110.464 244.416 110.086C244.549 109.709 244.615 109.279 244.615 108.797C244.615 108.315 244.549 107.885 244.416 107.508C244.286 107.13 244.094 106.832 243.839 106.612C243.583 106.393 243.265 106.283 242.884 106.283C242.499 106.283 242.175 106.393 241.913 106.612C241.654 106.832 241.458 107.13 241.325 107.508C241.195 107.885 241.131 108.315 241.131 108.797C241.131 109.279 241.195 109.709 241.325 110.086C241.458 110.464 241.654 110.762 241.913 110.982C242.175 111.197 242.499 111.305 242.884 111.305ZM249.872 112.924L247.617 104.638H249.942L251.226 110.205H251.302L252.64 104.638H254.922L256.281 110.173H256.351L257.613 104.638H259.933L257.684 112.924H255.251L253.826 107.713H253.724L252.3 112.924H249.872ZM264.727 113.086C263.875 113.086 263.141 112.913 262.526 112.568C261.915 112.219 261.444 111.726 261.113 111.09C260.782 110.449 260.617 109.692 260.617 108.819C260.617 107.966 260.782 107.218 261.113 106.574C261.444 105.931 261.91 105.429 262.51 105.069C263.114 104.71 263.823 104.53 264.636 104.53C265.182 104.53 265.691 104.618 266.162 104.794C266.637 104.967 267.051 105.228 267.403 105.576C267.759 105.925 268.036 106.364 268.234 106.893C268.432 107.418 268.53 108.033 268.53 108.738V109.369H261.534V107.945H266.367C266.367 107.614 266.295 107.321 266.151 107.065C266.008 106.81 265.808 106.61 265.553 106.467C265.301 106.319 265.008 106.245 264.673 106.245C264.325 106.245 264.015 106.326 263.746 106.488C263.479 106.646 263.271 106.86 263.12 107.13C262.969 107.396 262.891 107.693 262.888 108.02V109.374C262.888 109.784 262.963 110.138 263.114 110.437C263.269 110.735 263.487 110.966 263.767 111.127C264.048 111.289 264.38 111.37 264.765 111.37C265.02 111.37 265.254 111.334 265.466 111.262C265.679 111.19 265.86 111.082 266.011 110.939C266.162 110.795 266.277 110.618 266.356 110.41L268.482 110.55C268.374 111.061 268.153 111.507 267.818 111.888C267.488 112.266 267.06 112.56 266.535 112.773C266.013 112.981 265.411 113.086 264.727 113.086ZM270.03 112.924V104.638H272.258V106.084H272.344C272.495 105.569 272.749 105.181 273.105 104.918C273.461 104.652 273.871 104.519 274.335 104.519C274.45 104.519 274.574 104.526 274.707 104.541C274.84 104.555 274.957 104.575 275.058 104.6V106.639C274.95 106.607 274.801 106.578 274.61 106.553C274.419 106.528 274.245 106.515 274.087 106.515C273.749 106.515 273.447 106.589 273.18 106.736C272.918 106.88 272.709 107.081 272.555 107.34C272.404 107.599 272.328 107.898 272.328 108.236V112.924H270.03ZM283.506 113.086C282.668 113.086 281.943 112.908 281.332 112.551C280.724 112.192 280.254 111.692 279.924 111.052C279.593 110.408 279.427 109.662 279.427 108.813C279.427 107.957 279.593 107.209 279.924 106.569C280.254 105.925 280.724 105.425 281.332 105.069C281.943 104.71 282.668 104.53 283.506 104.53C284.343 104.53 285.066 104.71 285.674 105.069C286.285 105.425 286.757 105.925 287.087 106.569C287.418 107.209 287.584 107.957 287.584 108.813C287.584 109.662 287.418 110.408 287.087 111.052C286.757 111.692 286.285 112.192 285.674 112.551C285.066 112.908 284.343 113.086 283.506 113.086ZM283.516 111.305C283.898 111.305 284.216 111.197 284.471 110.982C284.726 110.762 284.919 110.464 285.048 110.086C285.181 109.709 285.248 109.279 285.248 108.797C285.248 108.315 285.181 107.885 285.048 107.508C284.919 107.13 284.726 106.832 284.471 106.612C284.216 106.393 283.898 106.283 283.516 106.283C283.132 106.283 282.808 106.393 282.545 106.612C282.286 106.832 282.09 107.13 281.957 107.508C281.828 107.885 281.763 108.315 281.763 108.797C281.763 109.279 281.828 109.709 281.957 110.086C282.09 110.464 282.286 110.762 282.545 110.982C282.808 111.197 283.132 111.305 283.516 111.305ZM293.534 104.638V106.364H288.42V104.638H293.534ZM289.59 112.924V104.039C289.59 103.438 289.707 102.94 289.941 102.545C290.178 102.149 290.502 101.852 290.912 101.655C291.322 101.457 291.788 101.358 292.309 101.358C292.662 101.358 292.984 101.385 293.275 101.439C293.57 101.493 293.789 101.541 293.933 101.585L293.523 103.311C293.433 103.282 293.322 103.255 293.189 103.23C293.059 103.205 292.926 103.192 292.789 103.192C292.451 103.192 292.216 103.271 292.083 103.429C291.95 103.584 291.883 103.802 291.883 104.082V112.924H289.59ZM304.49 105.053C304.447 104.618 304.262 104.28 303.934 104.039C303.607 103.798 303.163 103.678 302.602 103.678C302.221 103.678 301.899 103.732 301.636 103.839C301.374 103.944 301.172 104.089 301.032 104.276C300.896 104.463 300.827 104.676 300.827 104.913C300.82 105.111 300.861 105.283 300.951 105.431C301.045 105.578 301.172 105.706 301.334 105.814C301.496 105.918 301.683 106.01 301.895 106.089C302.107 106.164 302.334 106.229 302.575 106.283L303.568 106.52C304.049 106.628 304.492 106.772 304.895 106.952C305.297 107.132 305.646 107.353 305.941 107.616C306.236 107.878 306.464 108.187 306.626 108.543C306.792 108.899 306.876 109.308 306.88 109.768C306.876 110.444 306.704 111.03 306.362 111.527C306.024 112.019 305.535 112.402 304.895 112.676C304.258 112.945 303.49 113.08 302.591 113.08C301.699 113.08 300.922 112.943 300.261 112.67C299.603 112.397 299.088 111.992 298.718 111.456C298.351 110.917 298.159 110.25 298.141 109.455H300.401C300.426 109.825 300.532 110.135 300.719 110.383C300.91 110.627 301.163 110.813 301.48 110.939C301.8 111.061 302.161 111.122 302.564 111.122C302.96 111.122 303.303 111.064 303.595 110.949C303.889 110.834 304.118 110.674 304.28 110.469C304.441 110.264 304.522 110.029 304.522 109.763C304.522 109.514 304.449 109.306 304.301 109.137C304.157 108.968 303.945 108.824 303.665 108.705C303.388 108.587 303.048 108.479 302.645 108.382L301.442 108.079C300.511 107.853 299.775 107.499 299.236 107.017C298.696 106.535 298.428 105.886 298.432 105.069C298.428 104.4 298.606 103.816 298.966 103.316C299.329 102.816 299.827 102.426 300.46 102.146C301.093 101.865 301.813 101.725 302.618 101.725C303.438 101.725 304.154 101.865 304.765 102.146C305.38 102.426 305.858 102.816 306.2 103.316C306.542 103.816 306.718 104.395 306.729 105.053H304.49ZM310.771 113.08C310.242 113.08 309.771 112.988 309.357 112.805C308.944 112.618 308.616 112.343 308.375 111.98C308.138 111.613 308.019 111.156 308.019 110.609C308.019 110.149 308.104 109.763 308.273 109.45C308.442 109.137 308.672 108.885 308.963 108.694C309.255 108.504 309.586 108.36 309.956 108.263C310.33 108.166 310.722 108.097 311.132 108.058C311.614 108.008 312.002 107.961 312.297 107.918C312.592 107.871 312.806 107.803 312.939 107.713C313.072 107.623 313.139 107.49 313.139 107.313V107.281C313.139 106.939 313.031 106.675 312.815 106.488C312.603 106.301 312.301 106.208 311.909 106.208C311.495 106.208 311.166 106.299 310.922 106.483C310.677 106.663 310.515 106.889 310.436 107.162L308.311 106.99C308.419 106.486 308.631 106.051 308.947 105.684C309.264 105.314 309.672 105.03 310.172 104.832C310.675 104.631 311.258 104.53 311.92 104.53C312.38 104.53 312.82 104.584 313.241 104.692C313.666 104.8 314.041 104.967 314.369 105.193C314.7 105.42 314.96 105.711 315.151 106.067C315.341 106.42 315.437 106.842 315.437 107.335V112.924H313.257V111.775H313.193C313.06 112.034 312.882 112.262 312.659 112.46C312.436 112.654 312.168 112.807 311.855 112.918C311.542 113.026 311.181 113.08 310.771 113.08ZM311.429 111.494C311.767 111.494 312.065 111.428 312.324 111.295C312.583 111.158 312.786 110.975 312.934 110.744C313.081 110.514 313.155 110.253 313.155 109.962V109.083C313.083 109.13 312.984 109.173 312.858 109.212C312.736 109.248 312.597 109.282 312.443 109.315C312.288 109.344 312.134 109.371 311.979 109.396C311.824 109.417 311.684 109.437 311.558 109.455C311.288 109.495 311.053 109.558 310.851 109.644C310.65 109.73 310.494 109.847 310.382 109.995C310.271 110.138 310.215 110.318 310.215 110.534C310.215 110.847 310.328 111.086 310.555 111.251C310.785 111.413 311.076 111.494 311.429 111.494ZM319.582 113.08C319.054 113.08 318.583 112.988 318.169 112.805C317.755 112.618 317.428 112.343 317.187 111.98C316.95 111.613 316.831 111.156 316.831 110.609C316.831 110.149 316.916 109.763 317.085 109.45C317.254 109.137 317.484 108.885 317.775 108.694C318.067 108.504 318.397 108.36 318.768 108.263C319.142 108.166 319.534 108.097 319.944 108.058C320.426 108.008 320.814 107.961 321.109 107.918C321.404 107.871 321.618 107.803 321.751 107.713C321.884 107.623 321.951 107.49 321.951 107.313V107.281C321.951 106.939 321.843 106.675 321.627 106.488C321.415 106.301 321.113 106.208 320.721 106.208C320.307 106.208 319.978 106.299 319.733 106.483C319.489 106.663 319.327 106.889 319.248 107.162L317.123 106.99C317.23 106.486 317.443 106.051 317.759 105.684C318.076 105.314 318.484 105.03 318.984 104.832C319.487 104.631 320.07 104.53 320.731 104.53C321.192 104.53 321.632 104.584 322.053 104.692C322.477 104.8 322.853 104.967 323.181 105.193C323.511 105.42 323.772 105.711 323.963 106.067C324.153 106.42 324.249 106.842 324.249 107.335V112.924H322.069V111.775H322.005C321.871 112.034 321.693 112.262 321.47 112.46C321.248 112.654 320.98 112.807 320.667 112.918C320.354 113.026 319.992 113.08 319.582 113.08ZM320.241 111.494C320.579 111.494 320.877 111.428 321.136 111.295C321.395 111.158 321.598 110.975 321.746 110.744C321.893 110.514 321.967 110.253 321.967 109.962V109.083C321.895 109.13 321.796 109.173 321.67 109.212C321.548 109.248 321.409 109.282 321.255 109.315C321.1 109.344 320.945 109.371 320.791 109.396C320.636 109.417 320.496 109.437 320.37 109.455C320.1 109.495 319.865 109.558 319.663 109.644C319.462 109.73 319.306 109.847 319.194 109.995C319.083 110.138 319.027 110.318 319.027 110.534C319.027 110.847 319.14 111.086 319.367 111.251C319.597 111.413 319.888 111.494 320.241 111.494ZM332.068 105.053C332.025 104.618 331.84 104.28 331.512 104.039C331.185 103.798 330.741 103.678 330.18 103.678C329.799 103.678 329.477 103.732 329.214 103.839C328.952 103.944 328.75 104.089 328.61 104.276C328.473 104.463 328.405 104.676 328.405 104.913C328.398 105.111 328.439 105.283 328.529 105.431C328.623 105.578 328.75 105.706 328.912 105.814C329.074 105.918 329.261 106.01 329.473 106.089C329.685 106.164 329.912 106.229 330.153 106.283L331.145 106.52C331.627 106.628 332.07 106.772 332.473 106.952C332.875 107.132 333.224 107.353 333.519 107.616C333.814 107.878 334.042 108.187 334.204 108.543C334.37 108.899 334.454 109.308 334.458 109.768C334.454 110.444 334.281 111.03 333.94 111.527C333.602 112.019 333.113 112.402 332.473 112.676C331.836 112.945 331.068 113.08 330.169 113.08C329.277 113.08 328.5 112.943 327.839 112.67C327.181 112.397 326.666 111.992 326.296 111.456C325.929 110.917 325.737 110.25 325.719 109.455H327.979C328.004 109.825 328.11 110.135 328.297 110.383C328.488 110.627 328.741 110.813 329.058 110.939C329.378 111.061 329.739 111.122 330.142 111.122C330.538 111.122 330.881 111.064 331.172 110.949C331.467 110.834 331.696 110.674 331.858 110.469C332.019 110.264 332.1 110.029 332.1 109.763C332.1 109.514 332.027 109.306 331.879 109.137C331.735 108.968 331.523 108.824 331.243 108.705C330.966 108.587 330.626 108.479 330.223 108.382L329.02 108.079C328.089 107.853 327.353 107.499 326.814 107.017C326.274 106.535 326.006 105.886 326.01 105.069C326.006 104.4 326.184 103.816 326.544 103.316C326.907 102.816 327.405 102.426 328.038 102.146C328.671 101.865 329.39 101.725 330.196 101.725C331.016 101.725 331.732 101.865 332.343 102.146C332.958 102.426 333.436 102.816 333.778 103.316C334.12 103.816 334.296 104.395 334.307 105.053H332.068ZM340.798 101.358L337.237 114.585H335.257L338.818 101.358H340.798ZM344.568 112.924L341.407 101.876H343.959L345.787 109.552H345.879L347.897 101.876H350.081L352.094 109.568H352.191L354.019 101.876H356.571L353.41 112.924H351.133L349.03 105.701H348.943L346.845 112.924H344.568ZM360.664 113.086C359.812 113.086 359.078 112.913 358.463 112.568C357.852 112.219 357.381 111.726 357.05 111.09C356.719 110.449 356.553 109.692 356.553 108.819C356.553 107.966 356.719 107.218 357.05 106.574C357.381 105.931 357.846 105.429 358.447 105.069C359.051 104.71 359.76 104.53 360.572 104.53C361.119 104.53 361.628 104.618 362.099 104.794C362.574 104.967 362.987 105.228 363.34 105.576C363.696 105.925 363.973 106.364 364.17 106.893C364.368 107.418 364.467 108.033 364.467 108.738V109.369H357.471V107.945H362.304C362.304 107.614 362.232 107.321 362.088 107.065C361.944 106.81 361.745 106.61 361.489 106.467C361.238 106.319 360.945 106.245 360.61 106.245C360.261 106.245 359.952 106.326 359.682 106.488C359.416 106.646 359.208 106.86 359.056 107.13C358.905 107.396 358.828 107.693 358.825 108.02V109.374C358.825 109.784 358.9 110.138 359.051 110.437C359.206 110.735 359.423 110.966 359.704 111.127C359.984 111.289 360.317 111.37 360.702 111.37C360.957 111.37 361.191 111.334 361.403 111.262C361.615 111.19 361.797 111.082 361.948 110.939C362.099 110.795 362.214 110.618 362.293 110.41L364.419 110.55C364.311 111.061 364.09 111.507 363.755 111.888C363.424 112.266 362.996 112.56 362.471 112.773C361.95 112.981 361.347 113.086 360.664 113.086ZM366.01 112.924V101.876H368.308V106.03H368.378C368.479 105.807 368.624 105.58 368.815 105.35C369.009 105.116 369.261 104.922 369.57 104.767C369.883 104.609 370.272 104.53 370.736 104.53C371.34 104.53 371.897 104.688 372.408 105.005C372.918 105.317 373.327 105.79 373.632 106.423C373.938 107.053 374.091 107.842 374.091 108.792C374.091 109.716 373.942 110.496 373.643 111.133C373.348 111.766 372.945 112.246 372.435 112.573C371.928 112.897 371.359 113.059 370.73 113.059C370.284 113.059 369.905 112.985 369.592 112.837C369.283 112.69 369.029 112.505 368.831 112.282C368.633 112.055 368.482 111.827 368.378 111.597H368.276V112.924H366.01ZM368.259 108.781C368.259 109.273 368.328 109.703 368.464 110.07C368.601 110.437 368.799 110.723 369.058 110.928C369.317 111.129 369.631 111.23 370.002 111.23C370.376 111.23 370.692 111.127 370.951 110.922C371.21 110.714 371.406 110.426 371.539 110.059C371.676 109.689 371.744 109.263 371.744 108.781C371.744 108.302 371.678 107.882 371.545 107.518C371.412 107.155 371.216 106.871 370.957 106.666C370.698 106.461 370.379 106.359 370.002 106.359C369.628 106.359 369.311 106.458 369.052 106.655C368.797 106.853 368.601 107.134 368.464 107.497C368.328 107.86 368.259 108.288 368.259 108.781ZM375.603 112.924V111.241L379.535 107.599C379.87 107.276 380.15 106.984 380.377 106.725C380.607 106.467 380.781 106.213 380.9 105.965C381.019 105.713 381.078 105.442 381.078 105.15C381.078 104.827 381.004 104.548 380.857 104.314C380.709 104.077 380.508 103.895 380.253 103.769C379.997 103.64 379.708 103.575 379.384 103.575C379.046 103.575 378.751 103.643 378.5 103.78C378.248 103.917 378.054 104.113 377.917 104.368C377.78 104.623 377.712 104.927 377.712 105.28H375.495C375.495 104.557 375.658 103.929 375.986 103.397C376.313 102.865 376.771 102.453 377.361 102.162C377.951 101.87 378.631 101.725 379.4 101.725C380.192 101.725 380.88 101.865 381.466 102.146C382.056 102.422 382.515 102.807 382.842 103.3C383.169 103.793 383.333 104.357 383.333 104.994C383.333 105.411 383.25 105.823 383.085 106.229C382.923 106.636 382.633 107.087 382.216 107.583C381.799 108.076 381.211 108.667 380.452 109.358L378.839 110.939V111.014H383.479V112.924H375.603Z" fill="black"/>
<rect x="51.3798" y="50.731" width="397.24" height="90.3855" rx="6.45611" stroke="#D7D5D2" stroke-width="0.759542"/>
<path d="M250 141.496V153.649" stroke="#FF4F00" stroke-width="1.51908"/>
<rect x="237.847" y="153.649" width="24.3053" height="24.3053" rx="12.1527" fill="#FF4F00"/>
<g clip-path="url(#clip2_4625_22544)">
<path d="M255.317 165.042H250.759V160.485C250.759 160.283 250.679 160.09 250.537 159.948C250.395 159.805 250.201 159.725 250 159.725C249.798 159.725 249.605 159.805 249.463 159.948C249.32 160.09 249.24 160.283 249.24 160.485V165.042H244.683C244.482 165.042 244.288 165.122 244.146 165.264C244.004 165.407 243.924 165.6 243.924 165.802C243.924 166.003 244.004 166.196 244.146 166.339C244.288 166.481 244.482 166.561 244.683 166.561H249.24V171.118C249.24 171.32 249.32 171.513 249.463 171.655C249.605 171.798 249.798 171.878 250 171.878C250.201 171.878 250.395 171.798 250.537 171.655C250.679 171.513 250.759 171.32 250.759 171.118V166.561H255.317C255.518 166.561 255.711 166.481 255.854 166.339C255.996 166.196 256.076 166.003 256.076 165.802C256.076 165.6 255.996 165.407 255.854 165.264C255.711 165.122 255.518 165.042 255.317 165.042Z" fill="white"/>
</g>
<path d="M250 177.954V190.107" stroke="#FF4F00" stroke-width="1.51908"/>
<rect x="51.3798" y="190.487" width="397.24" height="90.3855" rx="6.45611" fill="white"/>
<g filter="url(#filter1_d_4625_22544)">
<rect x="66.1908" y="205.298" width="60.7634" height="60.7634" rx="9.1145" fill="white"/>
<g clip-path="url(#clip3_4625_22544)">
<g clip-path="url(#clip4_4625_22544)">
<path d="M96.3653 217.45L96.121 218.281V242.382L96.3653 242.626L107.553 236.013L96.3653 217.45Z" fill="#343434"/>
<path d="M96.3655 217.45L85.1779 236.013L96.3655 242.626V230.928V217.45Z" fill="#8C8C8C"/>
<path d="M96.3654 244.745L96.2277 244.913V253.498L96.3654 253.9L107.56 238.135L96.3654 244.745Z" fill="#3C3C3B"/>
<path d="M96.3655 253.9V244.745L85.1779 238.135L96.3655 253.9Z" fill="#8C8C8C"/>
<path d="M96.3654 242.626L107.553 236.014L96.3654 230.928V242.626Z" fill="#141414"/>
<path d="M85.178 236.014L96.3654 242.626V230.928L85.178 236.014Z" fill="#393939"/>
</g>
</g>
<rect x="66.5706" y="205.678" width="60.0038" height="60.0038" rx="8.73473" stroke="#E8E7E4" stroke-width="0.759542"/>
</g>
<g clip-path="url(#clip5_4625_22544)">
<path fill-rule="evenodd" clip-rule="evenodd" d="M157.718 222.096V214.032H161.133V232.261H157.718V224.537H155.233V222.096H157.718ZM148.088 222.096H145.183V224.537H148.088V222.096ZM150.037 224.537H153.284V222.096H150.037V224.537Z" fill="#2D2E2E"/>
</g>
<path d="M171.681 227.412H170.559L173.804 218.574H174.909L178.154 227.412H177.032L174.391 219.972H174.322L171.681 227.412ZM172.095 223.96H176.618V224.909H172.095V223.96ZM182.086 227.55C181.464 227.55 180.929 227.404 180.48 227.11C180.031 226.817 179.686 226.412 179.444 225.897C179.203 225.382 179.082 224.794 179.082 224.132C179.082 223.459 179.206 222.865 179.453 222.35C179.703 221.832 180.051 221.428 180.497 221.137C180.946 220.844 181.47 220.697 182.068 220.697C182.534 220.697 182.954 220.784 183.328 220.956C183.702 221.129 184.009 221.37 184.248 221.681C184.486 221.992 184.635 222.354 184.692 222.769H183.674C183.596 222.467 183.423 222.199 183.156 221.966C182.891 221.73 182.534 221.612 182.086 221.612C181.689 221.612 181.34 221.716 181.041 221.923C180.745 222.127 180.513 222.416 180.346 222.79C180.182 223.161 180.1 223.597 180.1 224.098C180.1 224.61 180.181 225.056 180.342 225.436C180.506 225.815 180.736 226.11 181.033 226.32C181.332 226.53 181.683 226.635 182.086 226.635C182.35 226.635 182.59 226.589 182.806 226.497C183.022 226.405 183.205 226.273 183.354 226.1C183.504 225.928 183.61 225.721 183.674 225.479H184.692C184.635 225.87 184.492 226.223 184.265 226.536C184.041 226.847 183.743 227.094 183.372 227.278C183.003 227.46 182.575 227.55 182.086 227.55ZM189.064 220.784V221.647H185.629V220.784H189.064ZM186.63 219.195H187.648V225.513C187.648 225.801 187.69 226.017 187.773 226.161C187.86 226.302 187.969 226.397 188.101 226.446C188.237 226.492 188.379 226.515 188.529 226.515C188.641 226.515 188.733 226.509 188.805 226.497C188.877 226.483 188.934 226.471 188.978 226.463L189.185 227.378C189.116 227.404 189.019 227.429 188.896 227.455C188.772 227.484 188.615 227.499 188.425 227.499C188.137 227.499 187.855 227.437 187.579 227.313C187.306 227.189 187.079 227.001 186.897 226.748C186.719 226.494 186.63 226.175 186.63 225.79V219.195ZM190.596 227.412V220.784H191.614V227.412H190.596ZM191.114 219.679C190.915 219.679 190.744 219.611 190.6 219.476C190.459 219.341 190.389 219.178 190.389 218.988C190.389 218.798 190.459 218.636 190.6 218.501C190.744 218.365 190.915 218.298 191.114 218.298C191.312 218.298 191.482 218.365 191.623 218.501C191.767 218.636 191.839 218.798 191.839 218.988C191.839 219.178 191.767 219.341 191.623 219.476C191.482 219.611 191.312 219.679 191.114 219.679ZM196.173 227.55C195.574 227.55 195.049 227.408 194.598 227.123C194.149 226.838 193.798 226.44 193.545 225.928C193.294 225.416 193.169 224.817 193.169 224.132C193.169 223.442 193.294 222.839 193.545 222.324C193.798 221.809 194.149 221.409 194.598 221.124C195.049 220.84 195.574 220.697 196.173 220.697C196.771 220.697 197.295 220.84 197.744 221.124C198.195 221.409 198.546 221.809 198.797 222.324C199.05 222.839 199.176 223.442 199.176 224.132C199.176 224.817 199.05 225.416 198.797 225.928C198.546 226.44 198.195 226.838 197.744 227.123C197.295 227.408 196.771 227.55 196.173 227.55ZM196.173 226.635C196.627 226.635 197.001 226.519 197.295 226.286C197.588 226.053 197.805 225.746 197.946 225.367C198.087 224.987 198.158 224.575 198.158 224.132C198.158 223.689 198.087 223.276 197.946 222.894C197.805 222.511 197.588 222.202 197.295 221.966C197.001 221.73 196.627 221.612 196.173 221.612C195.718 221.612 195.344 221.73 195.051 221.966C194.757 222.202 194.54 222.511 194.399 222.894C194.258 223.276 194.188 223.689 194.188 224.132C194.188 224.575 194.258 224.987 194.399 225.367C194.54 225.746 194.757 226.053 195.051 226.286C195.344 226.519 195.718 226.635 196.173 226.635ZM201.749 223.425V227.412H200.731V220.784H201.715V221.819H201.801C201.957 221.483 202.193 221.212 202.509 221.008C202.826 220.801 203.234 220.697 203.735 220.697C204.183 220.697 204.576 220.789 204.913 220.973C205.249 221.155 205.511 221.431 205.698 221.802C205.885 222.17 205.979 222.636 205.979 223.2V227.412H204.96V223.269C204.96 222.749 204.825 222.343 204.555 222.052C204.284 221.759 203.913 221.612 203.441 221.612C203.116 221.612 202.826 221.683 202.569 221.824C202.316 221.965 202.116 222.17 201.97 222.441C201.823 222.711 201.749 223.039 201.749 223.425ZM211.62 222.993C211.62 221.906 211.761 220.906 212.043 219.994C212.328 219.079 212.734 218.237 213.26 217.469H214.158C213.951 217.754 213.757 218.105 213.575 218.522C213.397 218.936 213.24 219.392 213.105 219.89C212.97 220.385 212.863 220.897 212.786 221.427C212.711 221.956 212.673 222.478 212.673 222.993C212.673 223.678 212.739 224.373 212.872 225.078C213.004 225.782 213.183 226.437 213.407 227.041C213.631 227.645 213.882 228.137 214.158 228.517H213.26C212.734 227.749 212.328 226.909 212.043 225.997C211.761 225.082 211.62 224.081 211.62 222.993ZM215.799 227.412V218.574H221.133V219.523H216.869V222.51H220.857V223.459H216.869V226.463H221.202V227.412H215.799ZM225.807 220.784V221.647H222.371V220.784H225.807ZM223.373 219.195H224.391V225.513C224.391 225.801 224.433 226.017 224.516 226.161C224.603 226.302 224.712 226.397 224.844 226.446C224.98 226.492 225.122 226.515 225.272 226.515C225.384 226.515 225.476 226.509 225.548 226.497C225.62 226.483 225.677 226.471 225.72 226.463L225.928 227.378C225.858 227.404 225.762 227.429 225.638 227.455C225.515 227.484 225.358 227.499 225.168 227.499C224.88 227.499 224.598 227.437 224.322 227.313C224.049 227.189 223.822 227.001 223.64 226.748C223.462 226.494 223.373 226.175 223.373 225.79V219.195ZM228.5 223.425V227.412H227.481V218.574H228.5V221.819H228.586C228.741 221.477 228.974 221.205 229.285 221.004C229.599 220.799 230.016 220.697 230.537 220.697C230.988 220.697 231.384 220.788 231.723 220.969C232.063 221.147 232.326 221.422 232.513 221.793C232.703 222.162 232.798 222.631 232.798 223.2V227.412H231.779V223.269C231.779 222.743 231.643 222.336 231.369 222.048C231.099 221.757 230.724 221.612 230.243 221.612C229.909 221.612 229.61 221.683 229.345 221.824C229.084 221.965 228.877 222.17 228.724 222.441C228.574 222.711 228.5 223.039 228.5 223.425ZM237.44 227.55C236.802 227.55 236.251 227.409 235.788 227.127C235.327 226.843 234.972 226.446 234.722 225.936C234.474 225.424 234.35 224.829 234.35 224.15C234.35 223.471 234.474 222.872 234.722 222.354C234.972 221.834 235.32 221.428 235.766 221.137C236.215 220.844 236.738 220.697 237.337 220.697C237.682 220.697 238.023 220.755 238.36 220.87C238.696 220.985 239.003 221.172 239.279 221.431C239.555 221.687 239.775 222.026 239.939 222.449C240.103 222.872 240.185 223.393 240.185 224.012V224.443H235.075V223.563H239.149C239.149 223.189 239.075 222.855 238.925 222.562C238.778 222.268 238.568 222.036 238.295 221.867C238.024 221.697 237.705 221.612 237.337 221.612C236.931 221.612 236.58 221.713 236.284 221.914C235.99 222.113 235.765 222.372 235.606 222.691C235.448 223.01 235.369 223.353 235.369 223.718V224.305C235.369 224.806 235.455 225.23 235.628 225.578C235.803 225.923 236.046 226.187 236.357 226.368C236.668 226.546 237.029 226.635 237.44 226.635C237.708 226.635 237.95 226.598 238.165 226.523C238.384 226.446 238.573 226.33 238.731 226.178C238.889 226.023 239.011 225.83 239.098 225.6L240.082 225.876C239.978 226.21 239.804 226.503 239.559 226.756C239.315 227.007 239.013 227.202 238.653 227.343C238.293 227.481 237.889 227.55 237.44 227.55ZM241.734 227.412V220.784H242.718V221.785H242.787C242.908 221.457 243.127 221.191 243.443 220.986C243.76 220.782 244.117 220.68 244.514 220.68C244.588 220.68 244.682 220.681 244.794 220.684C244.906 220.687 244.991 220.691 245.049 220.697V221.733C245.014 221.724 244.935 221.711 244.811 221.694C244.691 221.674 244.563 221.664 244.427 221.664C244.105 221.664 243.817 221.731 243.564 221.867C243.314 221.999 243.115 222.183 242.969 222.419C242.825 222.652 242.753 222.918 242.753 223.217V227.412H241.734ZM248.834 227.55C248.195 227.55 247.644 227.409 247.181 227.127C246.72 226.843 246.365 226.446 246.115 225.936C245.867 225.424 245.744 224.829 245.744 224.15C245.744 223.471 245.867 222.872 246.115 222.354C246.365 221.834 246.713 221.428 247.159 221.137C247.608 220.844 248.132 220.697 248.73 220.697C249.075 220.697 249.416 220.755 249.753 220.87C250.089 220.985 250.396 221.172 250.672 221.431C250.948 221.687 251.168 222.026 251.332 222.449C251.496 222.872 251.578 223.393 251.578 224.012V224.443H246.469V223.563H250.543C250.543 223.189 250.468 222.855 250.318 222.562C250.171 222.268 249.961 222.036 249.688 221.867C249.418 221.697 249.098 221.612 248.73 221.612C248.324 221.612 247.973 221.713 247.677 221.914C247.384 222.113 247.158 222.372 246.999 222.691C246.841 223.01 246.762 223.353 246.762 223.718V224.305C246.762 224.806 246.848 225.23 247.021 225.578C247.197 225.923 247.44 226.187 247.75 226.368C248.061 226.546 248.422 226.635 248.834 226.635C249.101 226.635 249.343 226.598 249.559 226.523C249.777 226.446 249.966 226.33 250.124 226.178C250.282 226.023 250.404 225.83 250.491 225.6L251.475 225.876C251.371 226.21 251.197 226.503 250.952 226.756C250.708 227.007 250.406 227.202 250.046 227.343C249.687 227.481 249.282 227.55 248.834 227.55ZM257.305 224.702V220.784H258.324V227.412H257.305V226.29H257.236C257.081 226.627 256.839 226.913 256.511 227.149C256.183 227.382 255.769 227.499 255.268 227.499C254.854 227.499 254.486 227.408 254.163 227.227C253.841 227.043 253.588 226.766 253.404 226.398C253.22 226.027 253.128 225.559 253.128 224.996V220.784H254.146V224.926C254.146 225.41 254.281 225.795 254.552 226.083C254.825 226.371 255.173 226.515 255.596 226.515C255.849 226.515 256.107 226.45 256.369 226.32C256.633 226.191 256.855 225.992 257.033 225.725C257.214 225.457 257.305 225.116 257.305 224.702ZM260.189 227.412V220.784H261.173V221.819H261.259C261.397 221.465 261.62 221.191 261.928 220.995C262.236 220.796 262.606 220.697 263.037 220.697C263.475 220.697 263.838 220.796 264.129 220.995C264.423 221.191 264.651 221.465 264.815 221.819H264.884C265.054 221.477 265.309 221.205 265.648 221.004C265.988 220.799 266.395 220.697 266.869 220.697C267.462 220.697 267.947 220.883 268.324 221.254C268.701 221.622 268.889 222.196 268.889 222.976V227.412H267.871V222.976C267.871 222.487 267.737 222.137 267.469 221.927C267.202 221.717 266.887 221.612 266.524 221.612C266.058 221.612 265.697 221.753 265.441 222.035C265.185 222.314 265.057 222.668 265.057 223.097V227.412H264.021V222.872C264.021 222.495 263.899 222.192 263.654 221.962C263.41 221.729 263.095 221.612 262.709 221.612C262.445 221.612 262.197 221.683 261.967 221.824C261.74 221.965 261.556 222.16 261.415 222.41C261.276 222.658 261.207 222.944 261.207 223.269V227.412H260.189ZM272.926 223.684C272.926 224.771 272.784 225.772 272.499 226.687C272.217 227.599 271.813 228.439 271.286 229.208H270.389C270.596 228.923 270.789 228.572 270.967 228.155C271.148 227.74 271.307 227.286 271.442 226.791C271.577 226.293 271.682 225.78 271.757 225.25C271.835 224.718 271.873 224.196 271.873 223.684C271.873 222.999 271.807 222.304 271.675 221.599C271.542 220.894 271.364 220.24 271.14 219.636C270.915 219.031 270.665 218.539 270.389 218.16H271.286C271.813 218.928 272.217 219.769 272.499 220.684C272.784 221.596 272.926 222.596 272.926 223.684Z" fill="black"/>
<path d="M150.507 244.394V246.12H145.518V244.394H150.507ZM146.65 242.408H148.948V250.133C148.948 250.345 148.981 250.511 149.046 250.63C149.11 250.745 149.2 250.826 149.315 250.872C149.434 250.919 149.571 250.942 149.725 250.942C149.833 250.942 149.941 250.933 150.049 250.915C150.157 250.894 150.24 250.878 150.297 250.867L150.658 252.577C150.543 252.613 150.382 252.654 150.173 252.701C149.964 252.751 149.711 252.782 149.412 252.793C148.859 252.814 148.373 252.741 147.956 252.572C147.542 252.403 147.22 252.14 146.99 251.784C146.76 251.428 146.647 250.978 146.65 250.435V242.408ZM155.659 252.841C154.821 252.841 154.097 252.663 153.485 252.307C152.877 251.948 152.408 251.448 152.077 250.808C151.746 250.164 151.581 249.418 151.581 248.569C151.581 247.713 151.746 246.965 152.077 246.325C152.408 245.681 152.877 245.181 153.485 244.825C154.097 244.465 154.821 244.286 155.659 244.286C156.497 244.286 157.22 244.465 157.828 244.825C158.439 245.181 158.91 245.681 159.241 246.325C159.572 246.965 159.737 247.713 159.737 248.569C159.737 249.418 159.572 250.164 159.241 250.808C158.91 251.448 158.439 251.948 157.828 252.307C157.22 252.663 156.497 252.841 155.659 252.841ZM155.67 251.061C156.051 251.061 156.369 250.953 156.625 250.737C156.88 250.518 157.073 250.22 157.202 249.842C157.335 249.464 157.402 249.035 157.402 248.553C157.402 248.071 157.335 247.641 157.202 247.263C157.073 246.886 156.88 246.587 156.625 246.368C156.369 246.149 156.051 246.039 155.67 246.039C155.285 246.039 154.961 246.149 154.699 246.368C154.44 246.587 154.244 246.886 154.111 247.263C153.981 247.641 153.917 248.071 153.917 248.553C153.917 249.035 153.981 249.464 154.111 249.842C154.244 250.22 154.44 250.518 154.699 250.737C154.961 250.953 155.285 251.061 155.67 251.061ZM168.491 252.841C167.643 252.841 166.912 252.661 166.301 252.302C165.693 251.939 165.226 251.435 164.899 250.791C164.575 250.148 164.413 249.407 164.413 248.569C164.413 247.72 164.577 246.976 164.904 246.336C165.235 245.692 165.704 245.19 166.312 244.83C166.92 244.467 167.643 244.286 168.48 244.286C169.203 244.286 169.836 244.417 170.379 244.679C170.922 244.942 171.352 245.311 171.669 245.785C171.985 246.26 172.16 246.817 172.192 247.458H170.023C169.962 247.044 169.8 246.711 169.538 246.46C169.279 246.204 168.939 246.077 168.518 246.077C168.162 246.077 167.851 246.174 167.585 246.368C167.322 246.559 167.117 246.837 166.97 247.204C166.823 247.571 166.749 248.015 166.749 248.536C166.749 249.065 166.821 249.515 166.965 249.885C167.112 250.256 167.319 250.538 167.585 250.732C167.851 250.926 168.162 251.023 168.518 251.023C168.781 251.023 169.016 250.969 169.225 250.862C169.437 250.754 169.612 250.597 169.748 250.392C169.888 250.184 169.98 249.934 170.023 249.642H172.192C172.156 250.275 171.983 250.833 171.674 251.315C171.368 251.793 170.946 252.167 170.406 252.437C169.867 252.706 169.229 252.841 168.491 252.841ZM173.663 252.679V244.394H175.891V245.839H175.977C176.129 245.325 176.382 244.937 176.738 244.674C177.094 244.408 177.504 244.275 177.968 244.275C178.083 244.275 178.207 244.282 178.34 244.296C178.473 244.311 178.59 244.331 178.691 244.356V246.395C178.583 246.363 178.434 246.334 178.243 246.309C178.053 246.283 177.878 246.271 177.72 246.271C177.382 246.271 177.08 246.345 176.814 246.492C176.551 246.636 176.342 246.837 176.188 247.096C176.037 247.355 175.961 247.654 175.961 247.992V252.679H173.663ZM183.269 252.841C182.417 252.841 181.683 252.669 181.068 252.323C180.457 251.975 179.986 251.482 179.655 250.845C179.324 250.205 179.159 249.448 179.159 248.574C179.159 247.722 179.324 246.974 179.655 246.33C179.986 245.686 180.452 245.185 181.052 244.825C181.656 244.465 182.365 244.286 183.178 244.286C183.724 244.286 184.233 244.374 184.704 244.55C185.179 244.723 185.593 244.983 185.945 245.332C186.301 245.681 186.578 246.12 186.776 246.648C186.974 247.173 187.073 247.788 187.073 248.493V249.124H180.076V247.7H184.909C184.909 247.369 184.837 247.076 184.694 246.821C184.55 246.566 184.35 246.366 184.095 246.222C183.843 246.075 183.55 246.001 183.215 246.001C182.867 246.001 182.557 246.082 182.288 246.244C182.022 246.402 181.813 246.616 181.662 246.886C181.511 247.152 181.434 247.449 181.43 247.776V249.13C181.43 249.54 181.505 249.894 181.656 250.193C181.811 250.491 182.029 250.721 182.309 250.883C182.59 251.045 182.922 251.126 183.307 251.126C183.563 251.126 183.796 251.09 184.008 251.018C184.221 250.946 184.402 250.838 184.553 250.694C184.704 250.55 184.819 250.374 184.899 250.166L187.024 250.306C186.916 250.817 186.695 251.262 186.36 251.644C186.03 252.021 185.602 252.316 185.077 252.528C184.555 252.737 183.953 252.841 183.269 252.841ZM190.935 252.836C190.406 252.836 189.935 252.744 189.522 252.561C189.108 252.374 188.781 252.099 188.54 251.735C188.302 251.369 188.184 250.912 188.184 250.365C188.184 249.905 188.268 249.518 188.437 249.205C188.606 248.893 188.837 248.641 189.128 248.45C189.419 248.26 189.75 248.116 190.12 248.019C190.494 247.922 190.886 247.853 191.296 247.814C191.778 247.763 192.167 247.717 192.462 247.673C192.757 247.627 192.971 247.558 193.104 247.468C193.237 247.378 193.303 247.245 193.303 247.069V247.037C193.303 246.695 193.195 246.431 192.979 246.244C192.767 246.057 192.465 245.963 192.073 245.963C191.66 245.963 191.331 246.055 191.086 246.238C190.841 246.418 190.68 246.645 190.601 246.918L188.475 246.746C188.583 246.242 188.795 245.807 189.112 245.44C189.428 245.07 189.836 244.786 190.336 244.588C190.84 244.386 191.422 244.286 192.084 244.286C192.544 244.286 192.985 244.34 193.406 244.447C193.83 244.555 194.206 244.723 194.533 244.949C194.864 245.176 195.125 245.467 195.315 245.823C195.506 246.176 195.601 246.598 195.601 247.091V252.679H193.422V251.53H193.357C193.224 251.789 193.046 252.018 192.823 252.216C192.6 252.41 192.332 252.563 192.019 252.674C191.706 252.782 191.345 252.836 190.935 252.836ZM191.593 251.25C191.931 251.25 192.23 251.183 192.489 251.05C192.748 250.914 192.951 250.73 193.098 250.5C193.246 250.27 193.319 250.009 193.319 249.718V248.839C193.247 248.885 193.149 248.928 193.023 248.968C192.9 249.004 192.762 249.038 192.607 249.071C192.453 249.099 192.298 249.126 192.143 249.151C191.989 249.173 191.848 249.193 191.723 249.211C191.453 249.25 191.217 249.313 191.016 249.4C190.815 249.486 190.658 249.603 190.547 249.75C190.435 249.894 190.379 250.074 190.379 250.29C190.379 250.603 190.493 250.842 190.719 251.007C190.949 251.169 191.241 251.25 191.593 251.25ZM201.791 244.394V246.12H196.801V244.394H201.791ZM197.934 242.408H200.232V250.133C200.232 250.345 200.265 250.511 200.329 250.63C200.394 250.745 200.484 250.826 200.599 250.872C200.718 250.919 200.855 250.942 201.009 250.942C201.117 250.942 201.225 250.933 201.333 250.915C201.441 250.894 201.523 250.878 201.581 250.867L201.942 252.577C201.827 252.613 201.666 252.654 201.457 252.701C201.248 252.751 200.995 252.782 200.696 252.793C200.142 252.814 199.657 252.741 199.24 252.572C198.826 252.403 198.504 252.14 198.274 251.784C198.044 251.428 197.931 250.978 197.934 250.435V242.408ZM206.975 252.841C206.123 252.841 205.389 252.669 204.775 252.323C204.163 251.975 203.692 251.482 203.361 250.845C203.03 250.205 202.865 249.448 202.865 248.574C202.865 247.722 203.03 246.974 203.361 246.33C203.692 245.686 204.158 245.185 204.758 244.825C205.363 244.465 206.071 244.286 206.884 244.286C207.43 244.286 207.939 244.374 208.41 244.55C208.885 244.723 209.299 244.983 209.651 245.332C210.007 245.681 210.284 246.12 210.482 246.648C210.68 247.173 210.779 247.788 210.779 248.493V249.124H203.782V247.7H208.615C208.615 247.369 208.543 247.076 208.4 246.821C208.256 246.566 208.056 246.366 207.801 246.222C207.549 246.075 207.256 246.001 206.922 246.001C206.573 246.001 206.263 246.082 205.994 246.244C205.728 246.402 205.519 246.616 205.368 246.886C205.217 247.152 205.14 247.449 205.136 247.776V249.13C205.136 249.54 205.211 249.894 205.363 250.193C205.517 250.491 205.735 250.721 206.015 250.883C206.296 251.045 206.628 251.126 207.013 251.126C207.269 251.126 207.502 251.09 207.715 251.018C207.927 250.946 208.108 250.838 208.259 250.694C208.41 250.55 208.525 250.374 208.605 250.166L210.73 250.306C210.622 250.817 210.401 251.262 210.066 251.644C209.736 252.021 209.308 252.316 208.783 252.528C208.261 252.737 207.659 252.841 206.975 252.841ZM217.429 252.679L215.174 244.394H217.499L218.783 249.961H218.858L220.196 244.394H222.478L223.837 249.928H223.907L225.17 244.394H227.489L225.24 252.679H222.807L221.383 247.468H221.28L219.856 252.679H217.429ZM232.251 252.841C231.413 252.841 230.689 252.663 230.077 252.307C229.47 251.948 229 251.448 228.669 250.808C228.338 250.164 228.173 249.418 228.173 248.569C228.173 247.713 228.338 246.965 228.669 246.325C229 245.681 229.47 245.181 230.077 244.825C230.689 244.465 231.413 244.286 232.251 244.286C233.089 244.286 233.812 244.465 234.42 244.825C235.031 245.181 235.502 245.681 235.833 246.325C236.164 246.965 236.329 247.713 236.329 248.569C236.329 249.418 236.164 250.164 235.833 250.808C235.502 251.448 235.031 251.948 234.42 252.307C233.812 252.663 233.089 252.841 232.251 252.841ZM232.262 251.061C232.643 251.061 232.962 250.953 233.217 250.737C233.472 250.518 233.665 250.22 233.794 249.842C233.927 249.464 233.994 249.035 233.994 248.553C233.994 248.071 233.927 247.641 233.794 247.263C233.665 246.886 233.472 246.587 233.217 246.368C232.962 246.149 232.643 246.039 232.262 246.039C231.877 246.039 231.554 246.149 231.291 246.368C231.032 246.587 230.836 246.886 230.703 247.263C230.574 247.641 230.509 248.071 230.509 248.553C230.509 249.035 230.574 249.464 230.703 249.842C230.836 250.22 231.032 250.518 231.291 250.737C231.554 250.953 231.877 251.061 232.262 251.061ZM240.122 247.889V252.679H237.824V244.394H240.014V245.855H240.111C240.294 245.374 240.602 244.992 241.033 244.712C241.465 244.428 241.988 244.286 242.603 244.286C243.179 244.286 243.68 244.412 244.108 244.663C244.536 244.915 244.869 245.275 245.106 245.742C245.344 246.206 245.462 246.76 245.462 247.404V252.679H243.164V247.814C243.168 247.307 243.038 246.911 242.776 246.627C242.513 246.339 242.152 246.195 241.692 246.195C241.382 246.195 241.109 246.262 240.872 246.395C240.638 246.528 240.454 246.722 240.321 246.977C240.192 247.229 240.125 247.533 240.122 247.889ZM250.327 252.814C249.697 252.814 249.127 252.652 248.617 252.329C248.11 252.002 247.707 251.521 247.408 250.888C247.113 250.252 246.966 249.472 246.966 248.547C246.966 247.598 247.119 246.808 247.425 246.179C247.73 245.546 248.137 245.073 248.644 244.76C249.154 244.444 249.714 244.286 250.321 244.286C250.785 244.286 251.172 244.365 251.481 244.523C251.794 244.678 252.046 244.872 252.236 245.106C252.431 245.336 252.578 245.562 252.679 245.785H252.749V241.632H255.042V252.679H252.776V251.352H252.679C252.571 251.583 252.418 251.811 252.22 252.038C252.026 252.26 251.773 252.446 251.46 252.593C251.15 252.741 250.773 252.814 250.327 252.814ZM251.055 250.986C251.425 250.986 251.738 250.885 251.994 250.683C252.253 250.478 252.45 250.193 252.587 249.826C252.727 249.459 252.797 249.029 252.797 248.536C252.797 248.044 252.729 247.616 252.592 247.253C252.456 246.889 252.258 246.609 251.999 246.411C251.74 246.213 251.425 246.114 251.055 246.114C250.677 246.114 250.359 246.217 250.1 246.422C249.841 246.627 249.645 246.911 249.512 247.274C249.379 247.637 249.313 248.058 249.313 248.536C249.313 249.018 249.379 249.445 249.512 249.815C249.649 250.182 249.845 250.47 250.1 250.678C250.359 250.883 250.677 250.986 251.055 250.986ZM260.707 252.841C259.855 252.841 259.121 252.669 258.506 252.323C257.895 251.975 257.424 251.482 257.093 250.845C256.762 250.205 256.597 249.448 256.597 248.574C256.597 247.722 256.762 246.974 257.093 246.33C257.424 245.686 257.889 245.185 258.49 244.825C259.094 244.465 259.803 244.286 260.615 244.286C261.162 244.286 261.671 244.374 262.142 244.55C262.617 244.723 263.03 244.983 263.383 245.332C263.739 245.681 264.016 246.12 264.214 246.648C264.411 247.173 264.51 247.788 264.51 248.493V249.124H257.514V247.7H262.347C262.347 247.369 262.275 247.076 262.131 246.821C261.987 246.566 261.788 246.366 261.532 246.222C261.281 246.075 260.988 246.001 260.653 246.001C260.304 246.001 259.995 246.082 259.725 246.244C259.459 246.402 259.251 246.616 259.1 246.886C258.949 247.152 258.871 247.449 258.868 247.776V249.13C258.868 249.54 258.943 249.894 259.094 250.193C259.249 250.491 259.466 250.721 259.747 250.883C260.027 251.045 260.36 251.126 260.745 251.126C261 251.126 261.234 251.09 261.446 251.018C261.658 250.946 261.84 250.838 261.991 250.694C262.142 250.55 262.257 250.374 262.336 250.166L264.462 250.306C264.354 250.817 264.133 251.262 263.798 251.644C263.467 252.021 263.039 252.316 262.514 252.528C261.993 252.737 261.39 252.841 260.707 252.841ZM266.01 252.679V244.394H268.238V245.839H268.324C268.475 245.325 268.729 244.937 269.085 244.674C269.441 244.408 269.851 244.275 270.315 244.275C270.43 244.275 270.554 244.282 270.687 244.296C270.82 244.311 270.937 244.331 271.038 244.356V246.395C270.93 246.363 270.78 246.334 270.59 246.309C270.399 246.283 270.225 246.271 270.067 246.271C269.728 246.271 269.426 246.345 269.16 246.492C268.898 246.636 268.689 246.837 268.535 247.096C268.383 247.355 268.308 247.654 268.308 247.992V252.679H266.01ZM277.097 244.394V246.12H271.983V244.394H277.097ZM273.154 252.679V243.795C273.154 243.194 273.27 242.696 273.504 242.3C273.742 241.905 274.065 241.608 274.475 241.41C274.885 241.213 275.351 241.114 275.872 241.114C276.225 241.114 276.547 241.141 276.838 241.195C277.133 241.249 277.352 241.297 277.496 241.34L277.086 243.066C276.996 243.038 276.885 243.011 276.752 242.986C276.622 242.96 276.489 242.948 276.352 242.948C276.014 242.948 275.779 243.027 275.646 243.185C275.513 243.34 275.446 243.557 275.446 243.838V252.679H273.154ZM283.814 249.151V244.394H286.112V252.679H283.906V251.174H283.82C283.633 251.66 283.322 252.05 282.887 252.345C282.455 252.64 281.928 252.787 281.306 252.787C280.752 252.787 280.265 252.661 279.844 252.41C279.423 252.158 279.094 251.8 278.857 251.336C278.623 250.872 278.504 250.317 278.501 249.669V244.394H280.799V249.259C280.802 249.748 280.934 250.135 281.193 250.419C281.452 250.703 281.799 250.845 282.234 250.845C282.511 250.845 282.77 250.782 283.011 250.657C283.252 250.527 283.446 250.336 283.593 250.085C283.744 249.833 283.818 249.522 283.814 249.151ZM290.249 241.632V252.679H287.951V241.632H290.249ZM300.013 244.394V246.12H295.023V244.394H300.013ZM296.156 242.408H298.454V250.133C298.454 250.345 298.486 250.511 298.551 250.63C298.615 250.745 298.705 250.826 298.82 250.872C298.939 250.919 299.076 250.942 299.23 250.942C299.338 250.942 299.446 250.933 299.554 250.915C299.662 250.894 299.745 250.878 299.802 250.867L300.164 252.577C300.049 252.613 299.887 252.654 299.678 252.701C299.47 252.751 299.216 252.782 298.918 252.793C298.364 252.814 297.878 252.741 297.461 252.572C297.047 252.403 296.726 252.14 296.495 251.784C296.265 251.428 296.152 250.978 296.156 250.435V242.408ZM303.986 247.889V252.679H301.688V241.632H303.921V245.855H304.018C304.205 245.366 304.507 244.983 304.924 244.706C305.341 244.426 305.865 244.286 306.494 244.286C307.069 244.286 307.571 244.412 307.999 244.663C308.431 244.911 308.765 245.269 309.003 245.737C309.243 246.201 309.362 246.756 309.359 247.404V252.679H307.06V247.814C307.064 247.303 306.935 246.906 306.672 246.621C306.413 246.337 306.05 246.195 305.582 246.195C305.27 246.195 304.993 246.262 304.752 246.395C304.514 246.528 304.327 246.722 304.191 246.977C304.058 247.229 303.989 247.533 303.986 247.889ZM311.167 252.679V244.394H313.465V252.679H311.167ZM312.321 243.325C311.98 243.325 311.687 243.212 311.442 242.986C311.201 242.755 311.081 242.48 311.081 242.16C311.081 241.844 311.201 241.572 311.442 241.346C311.687 241.115 311.98 241 312.321 241C312.663 241 312.954 241.115 313.195 241.346C313.44 241.572 313.562 241.844 313.562 242.16C313.562 242.48 313.44 242.755 313.195 242.986C312.954 243.212 312.663 243.325 312.321 243.325ZM317.604 247.889V252.679H315.306V244.394H317.496V245.855H317.593C317.777 245.374 318.084 244.992 318.516 244.712C318.947 244.428 319.47 244.286 320.085 244.286C320.661 244.286 321.163 244.412 321.591 244.663C322.018 244.915 322.351 245.275 322.588 245.742C322.826 246.206 322.945 246.76 322.945 247.404V252.679H320.646V247.814C320.65 247.307 320.521 246.911 320.258 246.627C319.996 246.339 319.634 246.195 319.174 246.195C318.865 246.195 318.591 246.262 318.354 246.395C318.12 246.528 317.937 246.722 317.804 246.977C317.674 247.229 317.608 247.533 317.604 247.889ZM328.489 255.959C327.744 255.959 327.106 255.857 326.574 255.652C326.045 255.45 325.624 255.175 325.311 254.826C324.998 254.478 324.795 254.086 324.702 253.65L326.827 253.365C326.892 253.53 326.994 253.685 327.135 253.828C327.275 253.972 327.46 254.087 327.69 254.174C327.924 254.264 328.208 254.309 328.543 254.309C329.043 254.309 329.454 254.186 329.778 253.942C330.105 253.701 330.269 253.296 330.269 252.728V251.212H330.172C330.071 251.442 329.92 251.66 329.719 251.865C329.517 252.07 329.258 252.237 328.942 252.367C328.625 252.496 328.248 252.561 327.809 252.561C327.187 252.561 326.62 252.417 326.11 252.129C325.603 251.838 325.198 251.394 324.896 250.797C324.597 250.196 324.448 249.437 324.448 248.52C324.448 247.582 324.601 246.798 324.907 246.168C325.212 245.539 325.619 245.068 326.126 244.755C326.637 244.442 327.196 244.286 327.804 244.286C328.268 244.286 328.656 244.365 328.969 244.523C329.282 244.678 329.533 244.872 329.724 245.106C329.918 245.336 330.067 245.562 330.172 245.785H330.258V244.394H332.54V252.76C332.54 253.465 332.367 254.055 332.022 254.53C331.677 255.004 331.199 255.36 330.587 255.598C329.979 255.839 329.28 255.959 328.489 255.959ZM328.537 250.835C328.908 250.835 329.221 250.743 329.476 250.559C329.735 250.372 329.933 250.106 330.069 249.761C330.21 249.412 330.28 248.995 330.28 248.51C330.28 248.024 330.211 247.603 330.075 247.247C329.938 246.888 329.74 246.609 329.481 246.411C329.222 246.213 328.908 246.114 328.537 246.114C328.16 246.114 327.841 246.217 327.582 246.422C327.323 246.623 327.127 246.904 326.994 247.263C326.861 247.623 326.795 248.038 326.795 248.51C326.795 248.988 326.861 249.401 326.994 249.75C327.131 250.095 327.327 250.363 327.582 250.554C327.841 250.741 328.16 250.835 328.537 250.835ZM341.263 246.756L339.159 246.886C339.123 246.706 339.046 246.544 338.927 246.4C338.808 246.253 338.652 246.136 338.458 246.05C338.267 245.96 338.039 245.915 337.773 245.915C337.417 245.915 337.116 245.99 336.872 246.141C336.627 246.289 336.505 246.487 336.505 246.735C336.505 246.933 336.584 247.1 336.742 247.236C336.9 247.373 337.172 247.483 337.557 247.565L339.056 247.868C339.862 248.033 340.463 248.299 340.858 248.666C341.254 249.033 341.452 249.515 341.452 250.112C341.452 250.655 341.292 251.131 340.971 251.541C340.655 251.951 340.22 252.271 339.666 252.501C339.116 252.728 338.481 252.841 337.762 252.841C336.665 252.841 335.791 252.613 335.14 252.156C334.493 251.696 334.113 251.07 334.002 250.279L336.262 250.16C336.33 250.495 336.496 250.75 336.758 250.926C337.021 251.099 337.357 251.185 337.767 251.185C338.17 251.185 338.494 251.108 338.738 250.953C338.986 250.795 339.112 250.592 339.116 250.344C339.112 250.135 339.024 249.964 338.851 249.831C338.679 249.695 338.413 249.59 338.053 249.518L336.618 249.232C335.809 249.071 335.207 248.79 334.811 248.391C334.419 247.992 334.223 247.483 334.223 246.864C334.223 246.332 334.367 245.873 334.655 245.489C334.946 245.104 335.354 244.807 335.879 244.599C336.408 244.39 337.026 244.286 337.735 244.286C338.781 244.286 339.605 244.507 340.205 244.949C340.81 245.392 341.162 245.994 341.263 246.756ZM346.415 252.679V244.394H348.713V252.679H346.415ZM347.569 243.325C347.227 243.325 346.934 243.212 346.69 242.986C346.449 242.755 346.328 242.48 346.328 242.16C346.328 241.844 346.449 241.572 346.69 241.346C346.934 241.115 347.227 241 347.569 241C347.911 241 348.202 241.115 348.443 241.346C348.687 241.572 348.81 241.844 348.81 242.16C348.81 242.48 348.687 242.755 348.443 242.986C348.202 243.212 347.911 243.325 347.569 243.325ZM352.851 247.889V252.679H350.553V244.394H352.744V245.855H352.841C353.024 245.374 353.332 244.992 353.763 244.712C354.195 244.428 354.718 244.286 355.333 244.286C355.908 244.286 356.41 244.412 356.838 244.663C357.266 244.915 357.599 245.275 357.836 245.742C358.073 246.206 358.192 246.76 358.192 247.404V252.679H355.894V247.814C355.898 247.307 355.768 246.911 355.506 246.627C355.243 246.339 354.882 246.195 354.421 246.195C354.112 246.195 353.839 246.262 353.601 246.395C353.368 246.528 353.184 246.722 353.051 246.977C352.922 247.229 352.855 247.533 352.851 247.889ZM366.049 252.679L362.888 241.632H365.439L367.268 249.308H367.36L369.377 241.632H371.562L373.574 249.324H373.671L375.5 241.632H378.052L374.891 252.679H372.614L370.51 245.456H370.424L368.326 252.679H366.049ZM382.145 252.841C381.292 252.841 380.559 252.669 379.944 252.323C379.333 251.975 378.861 251.482 378.531 250.845C378.2 250.205 378.034 249.448 378.034 248.574C378.034 247.722 378.2 246.974 378.531 246.33C378.861 245.686 379.327 245.185 379.928 244.825C380.532 244.465 381.24 244.286 382.053 244.286C382.6 244.286 383.109 244.374 383.58 244.55C384.054 244.723 384.468 244.983 384.82 245.332C385.177 245.681 385.453 246.12 385.651 246.648C385.849 247.173 385.948 247.788 385.948 248.493V249.124H378.951V247.7H383.785C383.785 247.369 383.713 247.076 383.569 246.821C383.425 246.566 383.226 246.366 382.97 246.222C382.718 246.075 382.425 246.001 382.091 246.001C381.742 246.001 381.433 246.082 381.163 246.244C380.897 246.402 380.688 246.616 380.537 246.886C380.386 247.152 380.309 247.449 380.305 247.776V249.13C380.305 249.54 380.381 249.894 380.532 250.193C380.687 250.491 380.904 250.721 381.185 250.883C381.465 251.045 381.798 251.126 382.183 251.126C382.438 251.126 382.672 251.09 382.884 251.018C383.096 250.946 383.278 250.838 383.429 250.694C383.58 250.55 383.695 250.374 383.774 250.166L385.899 250.306C385.791 250.817 385.57 251.262 385.236 251.644C384.905 252.021 384.477 252.316 383.952 252.528C383.431 252.737 382.828 252.841 382.145 252.841ZM387.491 252.679V241.632H389.789V245.785H389.859C389.96 245.562 390.105 245.336 390.296 245.106C390.49 244.872 390.742 244.678 391.051 244.523C391.364 244.365 391.752 244.286 392.216 244.286C392.82 244.286 393.378 244.444 393.889 244.76C394.399 245.073 394.807 245.546 395.113 246.179C395.419 246.808 395.572 247.598 395.572 248.547C395.572 249.472 395.422 250.252 395.124 250.888C394.829 251.521 394.426 252.002 393.916 252.329C393.408 252.652 392.84 252.814 392.211 252.814C391.765 252.814 391.386 252.741 391.073 252.593C390.763 252.446 390.51 252.26 390.312 252.038C390.114 251.811 389.963 251.583 389.859 251.352H389.756V252.679H387.491ZM389.74 248.536C389.74 249.029 389.809 249.459 389.945 249.826C390.082 250.193 390.28 250.478 390.539 250.683C390.798 250.885 391.112 250.986 391.483 250.986C391.857 250.986 392.173 250.883 392.432 250.678C392.691 250.47 392.887 250.182 393.02 249.815C393.157 249.445 393.225 249.018 393.225 248.536C393.225 248.058 393.159 247.637 393.025 247.274C392.892 246.911 392.696 246.627 392.437 246.422C392.179 246.217 391.86 246.114 391.483 246.114C391.109 246.114 390.792 246.213 390.533 246.411C390.278 246.609 390.082 246.889 389.945 247.253C389.809 247.616 389.74 248.044 389.74 248.536ZM401.167 252.83C400.362 252.83 399.644 252.692 399.015 252.415C398.389 252.135 397.894 251.75 397.531 251.261C397.172 250.768 396.986 250.2 396.976 249.556H399.328C399.342 249.826 399.43 250.063 399.592 250.268C399.757 250.47 399.977 250.626 400.25 250.737C400.523 250.849 400.831 250.905 401.172 250.905C401.529 250.905 401.843 250.842 402.117 250.716C402.39 250.59 402.604 250.416 402.758 250.193C402.913 249.97 402.99 249.712 402.99 249.421C402.99 249.126 402.908 248.866 402.742 248.639C402.58 248.409 402.347 248.229 402.041 248.1C401.739 247.97 401.379 247.905 400.962 247.905H399.932V246.19H400.962C401.315 246.19 401.626 246.129 401.895 246.006C402.169 245.884 402.381 245.715 402.532 245.499C402.683 245.28 402.758 245.025 402.758 244.733C402.758 244.456 402.692 244.214 402.559 244.005C402.429 243.793 402.246 243.628 402.009 243.509C401.775 243.39 401.502 243.331 401.189 243.331C400.872 243.331 400.583 243.388 400.32 243.503C400.058 243.615 399.847 243.775 399.689 243.984C399.531 244.192 399.446 244.437 399.435 244.717H397.197C397.208 244.081 397.389 243.52 397.742 243.034C398.094 242.549 398.569 242.169 399.166 241.896C399.766 241.619 400.444 241.481 401.199 241.481C401.962 241.481 402.629 241.619 403.201 241.896C403.773 242.173 404.217 242.547 404.533 243.018C404.853 243.485 405.012 244.011 405.008 244.593C405.012 245.212 404.819 245.728 404.431 246.141C404.046 246.555 403.544 246.817 402.926 246.929V247.015C403.738 247.12 404.357 247.402 404.781 247.862C405.209 248.319 405.422 248.891 405.418 249.578C405.422 250.207 405.24 250.766 404.873 251.255C404.51 251.744 404.008 252.129 403.368 252.41C402.728 252.69 401.994 252.83 401.167 252.83Z" fill="black"/>
<rect x="51.3798" y="190.487" width="397.24" height="90.3855" rx="6.45611" stroke="#D7D5D2" stroke-width="0.759542"/>
<defs>
<filter id="filter0_d_4625_22544" x="51" y="54.1489" width="91.145" height="91.145" filterUnits="userSpaceOnUse" color-interpolation-filters="sRGB">
<feFlood flood-opacity="0" result="BackgroundImageFix"/>
<feColorMatrix in="SourceAlpha" type="matrix" values="0 0 0 0 0 0 0 0 0 0 0 0 0 0 0 0 0 0 127 0" result="hardAlpha"/>
<feOffset dy="3.79771"/>
<feGaussianBlur stdDeviation="7.59542"/>
<feComposite in2="hardAlpha" operator="out"/>
<feColorMatrix type="matrix" values="0 0 0 0 0.26509 0 0 0 0 0.17974 0 0 0 0 0.3625 0 0 0 0.18 0"/>
<feBlend mode="normal" in2="BackgroundImageFix" result="effect1_dropShadow_4625_22544"/>
<feBlend mode="normal" in="SourceGraphic" in2="effect1_dropShadow_4625_22544" result="shape"/>
</filter>
<filter id="filter1_d_4625_22544" x="51" y="193.905" width="91.145" height="91.145" filterUnits="userSpaceOnUse" color-interpolation-filters="sRGB">
<feFlood flood-opacity="0" result="BackgroundImageFix"/>
<feColorMatrix in="SourceAlpha" type="matrix" values="0 0 0 0 0 0 0 0 0 0 0 0 0 0 0 0 0 0 127 0" result="hardAlpha"/>
<feOffset dy="3.79771"/>
<feGaussianBlur stdDeviation="7.59542"/>
<feComposite in2="hardAlpha" operator="out"/>
<feColorMatrix type="matrix" values="0 0 0 0 0.26509 0 0 0 0 0.17974 0 0 0 0 0.3625 0 0 0 0.18 0"/>
<feBlend mode="normal" in2="BackgroundImageFix" result="effect1_dropShadow_4625_22544"/>
<feBlend mode="normal" in="SourceGraphic" in2="effect1_dropShadow_4625_22544" result="shape"/>
</filter>
<clipPath id="clip0_4625_22544">
<rect width="36.458" height="36.458" fill="white" transform="translate(78.3435 77.6947)"/>
</clipPath>
<clipPath id="clip1_4625_22544">
<rect width="15.9504" height="18.9886" fill="white" transform="translate(145.183 73.897)"/>
</clipPath>
<clipPath id="clip2_4625_22544">
<rect width="12.1527" height="12.1527" fill="white" transform="translate(243.924 159.725)"/>
</clipPath>
<clipPath id="clip3_4625_22544">
<rect width="36.458" height="36.458" fill="white" transform="translate(78.3435 217.45)"/>
</clipPath>
<clipPath id="clip4_4625_22544">
<rect width="22.3819" height="36.458" fill="white" transform="translate(85.1779 217.45)"/>
</clipPath>
<clipPath id="clip5_4625_22544">
<rect width="15.9504" height="18.9886" fill="white" transform="matrix(-1 0 0 1 161.133 213.653)"/>
</clipPath>
</defs>
</svg>
